<svg width="12" height="11" viewBox="0 0 12 11" fill="none" xmlns="http://www.w3.org/2000/svg">
<path d="M11.2431 11V6.61985C11.2431 5.9053 10.9592 5.22001 10.4539 4.71475C9.94868 4.20948 9.2634 3.92563 8.54884 3.92563C7.84636 3.92563 7.02818 4.35538 6.63149 5.00001V4.08265H4.3257V11H6.63149V6.92563C6.63149 6.28927 7.14388 5.76861 7.78025 5.76861C8.08711 5.76861 8.3814 5.89051 8.59839 6.10749C8.81537 6.32448 8.93728 6.61877 8.93728 6.92563V11H11.2431Z" fill="white"/>
<path d="M2.7885 11V4.08265H0.499241V11H2.7885Z" fill="white"/>
<path d="M1.63974 2.78513C2.00797 2.78513 2.36113 2.63885 2.62151 2.37847C2.88189 2.11809 3.02817 1.76493 3.02817 1.3967C3.02817 0.628101 2.40834 0 1.63974 0C1.26931 0 0.914057 0.147151 0.652125 0.409083C0.390193 0.671015 0.243042 1.02627 0.243042 1.3967C0.243042 2.16529 0.871143 2.78513 1.63974 2.78513Z" fill="white"/>
</svg>
