<svg width="10" height="10" viewBox="0 0 10 10" fill="none" xmlns="http://www.w3.org/2000/svg">
<path d="M10 10V6.41623C10 5.8316 9.76776 5.27091 9.35436 4.85751C8.94096 4.44412 8.38027 4.21187 7.79564 4.21187C7.22089 4.21187 6.55147 4.56349 6.2269 5.09091V4.34035H4.34035V10H6.2269V6.66642C6.2269 6.14575 6.64613 5.71976 7.16679 5.71976C7.41786 5.71976 7.65865 5.8195 7.83618 5.99703C8.01371 6.17456 8.11345 6.41535 8.11345 6.66642V10H10Z" fill="white"/>
<path d="M3.08265 10V4.34035H1.20962V10H3.08265Z" fill="white"/>
<path d="M2.14275 3.27874C2.44403 3.27874 2.73298 3.15905 2.94601 2.94601C3.15905 2.73298 3.27874 2.44403 3.27874 2.14275C3.27874 1.5139 2.7716 1 2.14275 1C1.83967 1 1.54901 1.1204 1.3347 1.3347C1.1204 1.54901 1 1.83967 1 2.14275C1 2.7716 1.5139 3.27874 2.14275 3.27874Z" fill="white"/>
</svg>
