<svg width="10" height="10" viewBox="0 0 10 10" fill="none" xmlns="http://www.w3.org/2000/svg">
<g clip-path="url(#clip0_95_7172)">
<path d="M3.11 1H6.89C8.33 1 9.5 2.17 9.5 3.61V7.39C9.5 8.08222 9.22502 8.74608 8.73555 9.23555C8.24608 9.72502 7.58222 10 6.89 10H3.11C1.67 10 0.5 8.83 0.5 7.39V3.61C0.5 2.91779 0.774981 2.25392 1.26445 1.76445C1.75392 1.27498 2.41779 1 3.11 1ZM3.02 1.9C2.59035 1.9 2.1783 2.07068 1.87449 2.37449C1.57068 2.6783 1.4 3.09035 1.4 3.52V7.48C1.4 8.3755 2.1245 9.1 3.02 9.1H6.98C7.40965 9.1 7.8217 8.92932 8.12551 8.62551C8.42932 8.3217 8.6 7.90965 8.6 7.48V3.52C8.6 2.6245 7.8755 1.9 6.98 1.9H3.02ZM7.3625 2.575C7.51168 2.575 7.65476 2.63426 7.76025 2.73975C7.86574 2.84524 7.925 2.98832 7.925 3.1375C7.925 3.28668 7.86574 3.42976 7.76025 3.53525C7.65476 3.64074 7.51168 3.7 7.3625 3.7C7.21332 3.7 7.07024 3.64074 6.96475 3.53525C6.85926 3.42976 6.8 3.28668 6.8 3.1375C6.8 2.98832 6.85926 2.84524 6.96475 2.73975C7.07024 2.63426 7.21332 2.575 7.3625 2.575ZM5 3.25C5.59674 3.25 6.16903 3.48705 6.59099 3.90901C7.01295 4.33097 7.25 4.90326 7.25 5.5C7.25 6.09674 7.01295 6.66903 6.59099 7.09099C6.16903 7.51295 5.59674 7.75 5 7.75C4.40326 7.75 3.83097 7.51295 3.40901 7.09099C2.98705 6.66903 2.75 6.09674 2.75 5.5C2.75 4.90326 2.98705 4.33097 3.40901 3.90901C3.83097 3.48705 4.40326 3.25 5 3.25ZM5 4.15C4.64196 4.15 4.29858 4.29223 4.04541 4.54541C3.79223 4.79858 3.65 5.14196 3.65 5.5C3.65 5.85804 3.79223 6.20142 4.04541 6.45459C4.29858 6.70777 4.64196 6.85 5 6.85C5.35804 6.85 5.70142 6.70777 5.95459 6.45459C6.20777 6.20142 6.35 5.85804 6.35 5.5C6.35 5.14196 6.20777 4.79858 5.95459 4.54541C5.70142 4.29223 5.35804 4.15 5 4.15Z" fill="white"/>
</g>
<defs>
<clipPath id="clip0_95_7172">
<rect width="10" height="10" fill="white"/>
</clipPath>
</defs>
</svg>
