<svg width="12" height="11" viewBox="0 0 12 11" fill="none" xmlns="http://www.w3.org/2000/svg">
<path d="M3.91007 0H8.46523C10.2005 0 11.6105 1.40993 11.6105 3.14523V7.7004C11.6105 8.53457 11.2791 9.33457 10.6892 9.92442C10.0994 10.5143 9.2994 10.8456 8.46523 10.8456H3.91007C2.17476 10.8456 0.764832 9.4357 0.764832 7.7004V3.14523C0.764832 2.31107 1.0962 1.51106 1.68605 0.921218C2.2759 0.331372 3.0759 0 3.91007 0ZM3.80161 1.08456C3.28385 1.08456 2.7873 1.29024 2.42119 1.65635C2.05507 2.02246 1.8494 2.51902 1.8494 3.03678V7.80886C1.8494 8.888 2.72247 9.76107 3.80161 9.76107H8.57369C9.09145 9.76107 9.588 9.55539 9.95411 9.18928C10.3202 8.82317 10.5259 8.32662 10.5259 7.80886V3.03678C10.5259 1.95764 9.65283 1.08456 8.57369 1.08456H3.80161ZM9.03463 1.89799C9.21441 1.89799 9.38682 1.9694 9.51394 2.09652C9.64106 2.22365 9.71248 2.39606 9.71248 2.57584C9.71248 2.75562 9.64106 2.92803 9.51394 3.05515C9.38682 3.18227 9.21441 3.25369 9.03463 3.25369C8.85485 3.25369 8.68244 3.18227 8.55531 3.05515C8.42819 2.92803 8.35678 2.75562 8.35678 2.57584C8.35678 2.39606 8.42819 2.22365 8.55531 2.09652C8.68244 1.9694 8.85485 1.89799 9.03463 1.89799ZM6.18765 2.71141C6.90676 2.71141 7.59642 2.99707 8.1049 3.50556C8.61339 4.01405 8.89906 4.70371 8.89906 5.42282C8.89906 6.14193 8.61339 6.83159 8.1049 7.34007C7.59642 7.84856 6.90676 8.13423 6.18765 8.13423C5.46854 8.13423 4.77888 7.84856 4.27039 7.34007C3.76191 6.83159 3.47624 6.14193 3.47624 5.42282C3.47624 4.70371 3.76191 4.01405 4.27039 3.50556C4.77888 2.99707 5.46854 2.71141 6.18765 2.71141ZM6.18765 3.79597C5.75618 3.79597 5.34239 3.96737 5.0373 4.27246C4.7322 4.57756 4.5608 4.99135 4.5608 5.42282C4.5608 5.85428 4.7322 6.26808 5.0373 6.57317C5.34239 6.87826 5.75618 7.04966 6.18765 7.04966C6.61912 7.04966 7.03291 6.87826 7.338 6.57317C7.6431 6.26808 7.81449 5.85428 7.81449 5.42282C7.81449 4.99135 7.6431 4.57756 7.338 4.27246C7.03291 3.96737 6.61912 3.79597 6.18765 3.79597Z" fill="white"/>
</svg>
