<svg width="10" height="10" viewBox="0 0 10 10" fill="none" xmlns="http://www.w3.org/2000/svg">
<path d="M5.01809 0.5C2.54874 0.5 0.536181 2.5025 0.536181 4.9595C0.536181 5.747 0.744221 6.512 1.13317 7.187L0.5 9.5L2.87437 8.879C3.53015 9.2345 4.26734 9.4235 5.01809 9.4235C7.48744 9.4235 9.5 7.421 9.5 4.964C9.5 3.7715 9.03417 2.651 8.18844 1.8095C7.34271 0.9635 6.21658 0.5 5.01809 0.5ZM5.02261 1.2515C6.01759 1.2515 6.94925 1.6385 7.65477 2.3405C8.35578 3.0425 8.74472 3.974 8.74472 4.964C8.74472 7.007 7.07136 8.6675 5.01809 8.6675C4.34874 8.6675 3.69296 8.492 3.12312 8.15L2.98744 8.0735L1.57638 8.4425L1.95176 7.0745L1.86131 6.9305C1.49045 6.35 1.29146 5.6615 1.29146 4.9595C1.29598 2.9165 2.96482 1.2515 5.02261 1.2515ZM3.43065 2.8985C3.35829 2.8985 3.23618 2.9255 3.13216 3.038C3.03266 3.1505 2.73869 3.425 2.73869 3.9695C2.73869 4.5185 3.14121 5.045 3.19095 5.1215C3.25427 5.198 3.98693 6.323 5.11306 6.8C5.3799 6.9215 5.58794 6.989 5.75075 7.0385C6.01759 7.124 6.26181 7.1105 6.45628 7.0835C6.67337 7.052 7.11658 6.8135 7.21156 6.5525C7.30653 6.2915 7.30653 6.071 7.2794 6.0215C7.24774 5.9765 7.17538 5.9495 7.06231 5.9C6.94925 5.837 6.39749 5.567 6.29799 5.531C6.19397 5.495 6.13065 5.477 6.04472 5.585C5.97236 5.6975 5.75528 5.9495 5.69196 6.0215C5.62412 6.098 5.5608 6.107 5.45226 6.053C5.33467 5.9945 4.97286 5.8775 4.54774 5.4995C4.21306 5.2025 3.99146 4.838 3.92362 4.7255C3.86935 4.6175 3.91909 4.55 3.97337 4.5005C4.02312 4.451 4.09548 4.37 4.1407 4.3025C4.1995 4.2395 4.21759 4.19 4.25377 4.118C4.28995 4.0415 4.27186 3.9785 4.24472 3.9245C4.21759 3.875 3.99146 3.317 3.89648 3.0965C3.80603 2.8805 3.71558 2.9075 3.64322 2.903C3.5799 2.903 3.50754 2.8985 3.43065 2.8985Z" fill="white"/>
</svg>
