<svg width="12" height="11" viewBox="0 0 12 11" fill="none" xmlns="http://www.w3.org/2000/svg">
<path d="M6.28379 0C3.28078 0 0.833276 2.4475 0.833276 5.45051C0.833276 6.41301 1.08628 7.34802 1.55928 8.17302L0.789276 11L3.67678 10.241C4.47428 10.6755 5.37079 10.9065 6.28379 10.9065C9.28679 10.9065 11.7343 8.45902 11.7343 5.45601C11.7343 3.99851 11.1678 2.62901 10.1393 1.6005C9.11079 0.566501 7.74129 0 6.28379 0ZM6.28929 0.918502C7.49929 0.918502 8.63229 1.3915 9.4903 2.2495C10.3428 3.10751 10.8158 4.24601 10.8158 5.45601C10.8158 7.95302 8.78079 9.98252 6.28379 9.98252C5.46979 9.98252 4.67228 9.76802 3.97928 9.35002L3.81428 9.25652L2.09828 9.70752L2.55478 8.03552L2.44478 7.85952C1.99378 7.15002 1.75178 6.30851 1.75178 5.45051C1.75728 2.95351 3.78678 0.918502 6.28929 0.918502ZM4.35328 2.93151C4.26528 2.93151 4.11678 2.96451 3.99028 3.10201C3.86928 3.23951 3.51178 3.57501 3.51178 4.24051C3.51178 4.91151 4.00128 5.55501 4.06178 5.64851C4.13878 5.74201 5.02979 7.11701 6.39929 7.70002C6.72379 7.84852 6.97679 7.93102 7.17479 7.99152C7.49929 8.09602 7.79629 8.07952 8.03279 8.04652C8.29679 8.00802 8.83579 7.71652 8.95129 7.39752C9.06679 7.07851 9.06679 6.80901 9.03379 6.74851C8.99529 6.69351 8.90729 6.66051 8.76979 6.60001C8.63229 6.52301 7.96129 6.19301 7.84029 6.14901C7.71379 6.10501 7.63679 6.08301 7.53229 6.21501C7.44429 6.35251 7.18029 6.66051 7.10329 6.74851C7.02079 6.84201 6.94379 6.85301 6.81179 6.78701C6.66879 6.71551 6.22879 6.57251 5.71179 6.11051C5.30479 5.74751 5.03529 5.30201 4.95279 5.16451C4.88679 5.03251 4.94728 4.95001 5.01329 4.88951C5.07379 4.82901 5.16179 4.73001 5.21679 4.64751C5.28829 4.57051 5.31029 4.51001 5.35429 4.42201C5.39829 4.32851 5.37629 4.25151 5.34329 4.18551C5.31029 4.12501 5.03529 3.44301 4.91979 3.17351C4.80978 2.90951 4.69978 2.94251 4.61178 2.93701C4.53478 2.93701 4.44678 2.93151 4.35328 2.93151Z" fill="white"/>
</svg>
