<svg width="10" height="10" viewBox="0 0 10 10" fill="none" xmlns="http://www.w3.org/2000/svg">
<path d="M4.1 7.14571L6.4355 5.21714L4.1 3.28857V7.14571ZM9.302 2.11214C9.3605 2.41428 9.401 2.81928 9.428 3.33357C9.4595 3.84786 9.473 4.29143 9.473 4.67714L9.5 5.21714C9.5 6.625 9.428 7.66 9.302 8.32214C9.1895 8.90071 8.9285 9.27357 8.5235 9.43428C8.312 9.51786 7.925 9.57571 7.331 9.61428C6.746 9.65928 6.2105 9.67857 5.7155 9.67857L5 9.71714C3.1145 9.71714 1.94 9.61428 1.4765 9.43428C1.0715 9.27357 0.8105 8.90071 0.698 8.32214C0.6395 8.02 0.599 7.615 0.572 7.10071C0.5405 6.58643 0.527 6.14286 0.527 5.75714L0.5 5.21714C0.5 3.80928 0.572 2.77428 0.698 2.11214C0.8105 1.53357 1.0715 1.16071 1.4765 0.999999C1.688 0.916428 2.075 0.858571 2.669 0.819999C3.254 0.774999 3.7895 0.755713 4.2845 0.755713L5 0.717142C6.8855 0.717142 8.06 0.819999 8.5235 0.999999C8.9285 1.16071 9.1895 1.53357 9.302 2.11214Z" fill="white"/>
</svg>
