<svg width="16" height="11" viewBox="0 0 16 11" fill="none" xmlns="http://www.w3.org/2000/svg">
<path d="M6.57233 7.85716L10.6502 5.50001L6.57233 3.14286V7.85716ZM15.6552 1.705C15.7574 2.07429 15.8281 2.56929 15.8752 3.19786C15.9302 3.82644 15.9538 4.36858 15.9538 4.84001L16.0009 5.50001C16.0009 7.22073 15.8752 8.48573 15.6552 9.29502C15.4588 10.0022 15.0031 10.4579 14.2959 10.6543C13.9266 10.7565 13.2509 10.8272 12.2138 10.8743C11.1923 10.9293 10.2573 10.9529 9.39305 10.9529L8.14377 11C4.85162 11 2.8009 10.8743 1.99161 10.6543C1.28447 10.4579 0.82875 10.0022 0.632321 9.29502C0.530178 8.92573 0.459463 8.43073 0.41232 7.80216C0.35732 7.17359 0.333749 6.63144 0.333749 6.16001L0.286606 5.50001C0.286606 3.77929 0.41232 2.51429 0.632321 1.705C0.82875 0.997859 1.28447 0.542144 1.99161 0.345715C2.3609 0.243572 3.03661 0.172857 4.07376 0.125714C5.09519 0.0707143 6.03019 0.0471429 6.89448 0.0471429L8.14377 0C11.4359 0 13.4866 0.125715 14.2959 0.345715C15.0031 0.542144 15.4588 0.997859 15.6552 1.705Z" fill="white"/>
</svg>
