<svg width="20" height="21" viewBox="0 0 20 21" fill="none" xmlns="http://www.w3.org/2000/svg">
<path d="M9.81838 0.384277C4.41827 0.384277 0 4.82698 0 10.2987C0 15.246 3.59353 19.3523 8.28671 20.0944V13.1682H5.79284V10.2987H8.28671V8.112C8.28671 5.62844 9.74965 4.26298 11.9981 4.26298C13.0683 4.26298 14.1876 4.45098 14.1876 4.45098V6.89496H12.9504C11.733 6.89496 11.35 7.65685 11.35 8.43853V10.2987H14.0796L13.6377 13.1682H11.35V20.0944C13.6637 19.7262 15.7705 18.5365 17.2901 16.7402C18.8097 14.9439 19.642 12.6592 19.6368 10.2987C19.6368 4.82698 15.2185 0.384277 9.81838 0.384277Z" fill="#0500FF"/>
</svg>
