<svg width="21" height="21" viewBox="0 0 21 21" fill="none" xmlns="http://www.w3.org/2000/svg">
<ellipse cx="10.8032" cy="10.5968" rx="9.94989" ry="10.2121" fill="#0500FF"/>
<path d="M8.0156 8.84753H5.82715V15.6034H8.0156V8.84753Z" fill="white"/>
<path d="M6.93786 5.58679C6.18915 5.58679 5.69995 6.09198 5.69995 6.75411C5.69995 7.40234 6.17427 7.92146 6.9089 7.92146H6.92304C7.68609 7.92146 8.16105 7.40234 8.16105 6.75411C8.14689 6.09198 7.68614 5.58679 6.93786 5.58679Z" fill="white"/>
<path d="M13.3874 8.68933C12.2267 8.68933 11.7067 9.34451 11.4156 9.80472V8.8482H9.22778C9.2568 9.4819 9.22778 15.6041 9.22778 15.6041H11.4155V11.8311C11.4155 11.6292 11.4297 11.4273 11.4877 11.2829C11.6456 10.8796 12.0058 10.4618 12.6103 10.4618C13.4016 10.4618 13.7186 11.0816 13.7186 11.9894V15.6041H15.9065V11.7299C15.9065 9.65468 14.827 8.68933 13.3874 8.68933Z" fill="white"/>
</svg>
