<svg width="21" height="21" viewBox="0 0 21 21" fill="none" xmlns="http://www.w3.org/2000/svg">
<path d="M6.10973 0.384277H14.3402C17.4757 0.384277 20.0232 2.95161 20.0232 6.11141V14.4059C20.0232 15.9248 19.4245 17.3815 18.3587 18.4556C17.2929 19.5296 15.8475 20.133 14.3402 20.133H6.10973C2.9743 20.133 0.426758 17.5657 0.426758 14.4059V6.11141C0.426758 4.59248 1.0255 3.13576 2.09126 2.06171C3.15702 0.98767 4.60251 0.384277 6.10973 0.384277ZM5.91376 2.35915C4.97825 2.35915 4.08105 2.73367 3.41954 3.40032C2.75803 4.06697 2.3864 4.97114 2.3864 5.91392V14.6034C2.3864 16.5684 3.96392 18.1581 5.91376 18.1581H14.5362C15.4717 18.1581 16.3689 17.7836 17.0304 17.117C17.6919 16.4503 18.0636 15.5461 18.0636 14.6034V5.91392C18.0636 3.94892 16.486 2.35915 14.5362 2.35915H5.91376ZM15.369 3.8403C15.6939 3.8403 16.0054 3.97035 16.2351 4.20182C16.4648 4.4333 16.5938 4.74724 16.5938 5.0746C16.5938 5.40195 16.4648 5.7159 16.2351 5.94738C16.0054 6.17885 15.6939 6.30889 15.369 6.30889C15.0442 6.30889 14.7327 6.17885 14.503 5.94738C14.2733 5.7159 14.1443 5.40195 14.1443 5.0746C14.1443 4.74724 14.2733 4.4333 14.503 4.20182C14.7327 3.97035 15.0442 3.8403 15.369 3.8403ZM10.225 5.32146C11.5243 5.32146 12.7704 5.84162 13.6892 6.76752C14.6079 7.69343 15.1241 8.94922 15.1241 10.2586C15.1241 11.5681 14.6079 12.8239 13.6892 13.7498C12.7704 14.6757 11.5243 15.1958 10.225 15.1958C8.92565 15.1958 7.67955 14.6757 6.76079 13.7498C5.84202 12.8239 5.32587 11.5681 5.32587 10.2586C5.32587 8.94922 5.84202 7.69343 6.76079 6.76752C7.67955 5.84162 8.92565 5.32146 10.225 5.32146ZM10.225 7.29633C9.44538 7.29633 8.69772 7.60843 8.14646 8.16397C7.59521 8.71951 7.28551 9.47299 7.28551 10.2586C7.28551 11.0443 7.59521 11.7978 8.14646 12.3533C8.69772 12.9088 9.44538 13.2209 10.225 13.2209C11.0046 13.2209 11.7522 12.9088 12.3035 12.3533C12.8548 11.7978 13.1644 11.0443 13.1644 10.2586C13.1644 9.47299 12.8548 8.71951 12.3035 8.16397C11.7522 7.60843 11.0046 7.29633 10.225 7.29633Z" fill="#0500FF"/>
</svg>
