<svg width="26" height="19" viewBox="0 0 26 19" fill="none" xmlns="http://www.w3.org/2000/svg">
<path d="M25.0914 3.20242C24.7994 2.10873 23.9437 1.24664 22.8587 0.952139C20.8762 0.405396 12.9464 0.405396 12.9464 0.405396C12.9464 0.405396 5.01687 0.405396 3.03442 0.931298C1.97024 1.22561 1.09373 2.10893 0.801684 3.20242C0.280029 5.20006 0.280029 9.343 0.280029 9.343C0.280029 9.343 0.280029 13.5068 0.801684 15.4836C1.09392 16.5771 1.94936 17.4394 3.03462 17.7339C5.03774 18.2806 12.9466 18.2806 12.9466 18.2806C12.9466 18.2806 20.8762 18.2806 22.8587 17.7547C23.9439 17.4604 24.7994 16.5981 25.0916 15.5046C25.6133 13.5068 25.6133 9.36404 25.6133 9.36404C25.6133 9.36404 25.6341 5.20006 25.0914 3.20242Z" fill="#0500FF"/>
<path d="M10.4215 13.1706L17.0156 9.34318L10.4215 5.51575V13.1706Z" fill="white"/>
</svg>
