<svg width="13" height="14" viewBox="0 0 13 14" fill="none" xmlns="http://www.w3.org/2000/svg">
<path d="M7.1792 5.96398C7.35927 5.78597 7.5077 5.60499 7.69266 5.45151C8.2615 4.97982 8.93431 4.74182 9.71975 4.74779C10.1515 4.7511 10.5783 4.77829 10.9945 4.88436C11.9465 5.12667 12.4999 5.7031 12.7636 6.52152C12.9614 7.13508 12.9979 7.76522 12.9994 8.39734C13.002 9.73054 12.9949 11.0637 12.9983 12.3969C12.9987 12.5219 12.9587 12.5544 12.8193 12.5534C12.0388 12.5478 11.2582 12.5474 10.4777 12.5537C10.3402 12.5547 10.3108 12.5173 10.3112 12.4032C10.3157 11.1347 10.3165 9.86611 10.3119 8.59756C10.3108 8.27967 10.2878 7.96178 10.1865 7.65285C9.99965 7.08337 9.53667 6.79333 8.85859 6.82482C7.93301 6.86791 7.45157 7.27099 7.33366 8.09935C7.3054 8.29724 7.29222 8.49513 7.29222 8.69435C7.29335 9.9281 7.29071 11.1619 7.29599 12.3956C7.29636 12.5186 7.26133 12.555 7.11855 12.5537C6.33236 12.5478 5.54616 12.5484 4.75996 12.5534C4.63376 12.5541 4.5976 12.5242 4.5976 12.4122C4.60099 9.96954 4.60099 7.52689 4.5976 5.08424C4.59722 4.96325 4.64243 4.93541 4.77239 4.93607C5.51903 4.94104 6.26568 4.94137 7.01232 4.93574C7.14982 4.93474 7.18523 4.97386 7.18222 5.08822C7.17393 5.37992 7.1792 5.67195 7.1792 5.96398Z" fill="white"/>
<path d="M2.90181 8.7555C2.90181 9.96406 2.89955 11.1723 2.9052 12.3809C2.90595 12.5151 2.8679 12.5559 2.70968 12.5542C1.92951 12.5466 1.14897 12.5483 0.368794 12.5532C0.243726 12.5539 0.206055 12.5264 0.206055 12.4127C0.209822 9.96605 0.209445 7.51909 0.206808 5.07246C0.206808 4.97136 0.234685 4.93523 0.35674 4.93589C1.14821 4.94054 1.94006 4.94186 2.73153 4.9349C2.88372 4.93357 2.90444 4.98562 2.90407 5.10031C2.90068 6.31881 2.90181 7.53699 2.90181 8.7555Z" fill="white"/>
<path d="M3.1173 2.51121C3.11806 3.26996 2.41812 3.88816 1.55809 3.88816C0.708603 3.88849 0.00264436 3.26996 7.37143e-06 2.52314C-0.00262962 1.76804 0.702576 1.14619 1.5611 1.14685C2.4136 1.14751 3.11617 1.76373 3.1173 2.51121Z" fill="white"/>
</svg>
