<svg width="14" height="14" viewBox="0 0 14 14" fill="none" xmlns="http://www.w3.org/2000/svg">
<g clip-path="url(#clip0_126_4795)">
<path d="M13.9674 4.32107C13.9347 3.63016 13.8172 3.15743 13.641 2.74531C13.4648 2.30895 13.1907 1.91501 12.8317 1.5938C12.4792 1.26046 12.055 1.00592 11.5916 0.842281C11.1478 0.684705 10.6387 0.569553 9.89464 0.53925C9.14406 0.508947 8.90909 0.496826 7.00326 0.496826C5.10396 0.496826 4.86247 0.502887 4.11841 0.53319C3.37436 0.563493 2.86527 0.672584 2.42144 0.83622C1.95151 0.999856 1.52727 1.2544 1.18135 1.58774C0.822376 1.91501 0.548251 2.30895 0.372028 2.73925C0.202331 3.15137 0.0783215 3.6241 0.0456874 4.31501C0.0130534 5.01198 0 5.23016 0 6.99986C0 8.76955 0.00652521 8.98773 0.0391592 9.67864C0.0717933 10.3696 0.189276 10.8423 0.365499 11.2544C0.541723 11.6908 0.822379 12.0847 1.17483 12.4059C1.52727 12.7392 1.95152 12.9938 2.41492 13.1574C2.85874 13.315 3.36783 13.4302 4.11189 13.4605C4.85595 13.4908 5.09744 13.4968 6.99674 13.4968C8.89604 13.4968 9.13753 13.4908 9.88158 13.4605C10.6256 13.4302 11.1347 13.3211 11.5786 13.1574C12.5184 12.818 13.2625 12.1271 13.628 11.2544C13.7977 10.8423 13.9217 10.3696 13.9543 9.67864C13.9869 8.98773 13.9935 8.76349 13.9935 6.99986C13.9935 5.23622 14 5.01198 13.9674 4.32107ZM12.7077 9.63016C12.6751 10.2665 12.5641 10.6059 12.4662 10.8362C12.2312 11.4059 11.7482 11.8544 11.1347 12.0726C10.8867 12.1635 10.5147 12.2665 9.8359 12.2968C9.09837 12.3271 8.87646 12.3332 7.00326 12.3332C5.13007 12.3332 4.90816 12.3271 4.17063 12.2968C3.48531 12.2665 3.11981 12.1635 2.8718 12.0726C2.56504 11.9696 2.29091 11.8059 2.069 11.5877C1.83403 11.3756 1.65781 11.1211 1.54685 10.8423C1.44895 10.612 1.338 10.2665 1.30536 9.63622C1.27273 8.95137 1.2662 8.74531 1.2662 7.00592C1.2662 5.26652 1.27273 5.06046 1.30536 4.37561C1.338 3.73925 1.44895 3.39986 1.54685 3.16955C1.65781 2.8847 1.83403 2.63016 2.07552 2.4241C2.30396 2.20592 2.57809 2.04228 2.87832 1.93925C3.12634 1.84834 3.49837 1.74531 4.17716 1.71501C4.91469 1.6847 5.13659 1.67864 7.00979 1.67864C8.88298 1.67864 9.10489 1.6847 9.84242 1.71501C10.5277 1.74531 10.8932 1.84834 11.1413 1.93925C11.448 2.04228 11.7221 2.20592 11.9441 2.4241C12.179 2.63622 12.3552 2.89077 12.4662 3.16955C12.5641 3.39986 12.6751 3.74531 12.7077 4.37561C12.7403 5.06046 12.7469 5.26652 12.7469 7.00592C12.7469 8.74531 12.7403 8.94531 12.7077 9.63016Z" fill="white"/>
<path d="M7.00319 3.65442C5.01904 3.65442 3.40039 5.15139 3.40039 6.99987C3.40039 8.84836 5.01251 10.3453 7.00319 10.3453C8.98734 10.3453 10.606 8.84836 10.606 6.99987C10.606 5.15139 8.98734 3.65442 7.00319 3.65442ZM7.00319 9.16957C5.71088 9.16957 4.66659 8.19987 4.66659 6.99987C4.66659 5.79987 5.71088 4.83018 7.00319 4.83018C8.2955 4.83018 9.33978 5.79987 9.33978 6.99987C9.33978 8.19987 8.2955 9.16957 7.00319 9.16957Z" fill="white"/>
<path d="M11.585 3.52724C11.585 3.95754 11.2064 4.30906 10.743 4.30906C10.2796 4.30906 9.90106 3.95754 9.90106 3.52724C9.90106 3.09694 10.2796 2.74542 10.743 2.74542C11.2064 2.74542 11.585 3.09694 11.585 3.52724Z" fill="white"/>
</g>
<defs>
<clipPath id="clip0_126_4795">
<rect width="14" height="13" fill="white" transform="translate(0 0.496826)"/>
</clipPath>
</defs>
</svg>
