<svg width="13" height="14" viewBox="0 0 13 14" fill="none" xmlns="http://www.w3.org/2000/svg">
<path d="M5.32831 7.10242V5.03425C4.83846 5.06681 4.35481 5.06342 3.8815 5.13668C2.12466 5.41139 0.712296 7 0.652356 8.74801C0.612397 10.0415 1.08571 11.118 2.09159 11.9585C3.52806 13.1597 5.7596 13.1401 7.17816 11.9157C8.09792 11.1214 8.55607 10.1175 8.56641 8.91826C8.57537 7.45447 8.56641 5.99067 8.56641 4.52755V4.29218C9.35871 5.05935 10.2909 5.42021 11.3422 5.55587C11.4745 4.89384 11.6033 4.24945 11.7342 3.59827C11.6978 3.58736 11.6607 3.57831 11.6233 3.57113C11.081 3.50942 10.5627 3.31595 10.1152 3.00814C9.50653 2.57786 9.01253 2.00911 8.67526 1.35034C8.5919 1.19433 8.49476 1.14685 8.3177 1.14685C7.77273 1.15838 7.22708 1.15092 6.68211 1.1516C6.62079 1.1516 6.56017 1.15635 6.48231 1.15974V1.39308C6.48231 3.88519 6.48231 6.37731 6.48231 8.86942C6.48792 9.01037 6.47892 9.15151 6.45544 9.29065C6.25634 10.2403 5.47299 10.8386 4.48503 10.7985C3.36203 10.7531 2.51254 9.63931 2.77434 8.56351C2.99481 7.6722 3.72166 7.10581 4.65313 7.1031L5.32831 7.10242Z" fill="white"/>
</svg>
