<svg width="14" height="14" viewBox="0 0 14 14" fill="none" xmlns="http://www.w3.org/2000/svg">
<path d="M6.72936 12.1714C5.51782 12.1714 4.06881 12.1129 2.61495 11.9914C1.22409 11.8699 0.133703 10.7854 0.0707024 9.33638C-0.0504523 7.94588 0.00770196 6.55987 0.0707024 5.16936C0.128857 3.96335 1.21925 2.87434 2.4308 2.69434C4.06396 2.50984 5.76013 2.44684 7.39329 2.44684C8.72599 2.50534 10.0538 2.56834 11.3865 2.62684C12.7774 2.74834 13.8678 3.83285 13.9308 5.22336C14.052 6.61387 13.989 7.99988 13.9308 9.39038C13.8726 10.5964 12.7822 11.7439 11.5707 11.8654C10.0538 12.1084 8.54184 12.1714 6.72936 12.1714ZM5.69713 9.45339C6.84567 8.72888 7.99906 8.06288 9.14761 7.33837C7.99906 6.61387 6.84567 5.94786 5.69713 5.22336C5.69713 6.61387 5.69713 8.00438 5.69713 9.45339Z" fill="white"/>
</svg>
