<svg xmlns="http://www.w3.org/2000/svg" xmlns:xlink="http://www.w3.org/1999/xlink" viewBox="0 0 1403.15 649.2"><defs><style>.cls-1{isolation:isolate;}.cls-10,.cls-11,.cls-12,.cls-13,.cls-14,.cls-15,.cls-16,.cls-17,.cls-18,.cls-19,.cls-2,.cls-20,.cls-21,.cls-22,.cls-23,.cls-24,.cls-25,.cls-26,.cls-27,.cls-28,.cls-29,.cls-3,.cls-30,.cls-31,.cls-32,.cls-33,.cls-34,.cls-35,.cls-36,.cls-37,.cls-38,.cls-39,.cls-4,.cls-40,.cls-41,.cls-42,.cls-43,.cls-44,.cls-45,.cls-46,.cls-47,.cls-48,.cls-49,.cls-5,.cls-50,.cls-6,.cls-7,.cls-8,.cls-9{mix-blend-mode:color-dodge;}.cls-2{fill:url(#radial-gradient);}.cls-3{fill:url(#radial-gradient-2);}.cls-4{fill:url(#radial-gradient-3);}.cls-5{fill:url(#radial-gradient-4);}.cls-6{fill:url(#radial-gradient-5);}.cls-7{fill:url(#radial-gradient-6);}.cls-8{fill:url(#radial-gradient-7);}.cls-9{fill:url(#radial-gradient-8);}.cls-10{fill:url(#radial-gradient-9);}.cls-11{fill:url(#radial-gradient-10);}.cls-12{fill:url(#radial-gradient-11);}.cls-13{fill:url(#radial-gradient-12);}.cls-14{fill:url(#radial-gradient-13);}.cls-15{fill:url(#radial-gradient-14);}.cls-16{fill:url(#radial-gradient-15);}.cls-17{fill:url(#radial-gradient-16);}.cls-18{fill:url(#radial-gradient-17);}.cls-19{fill:url(#radial-gradient-18);}.cls-20{fill:url(#radial-gradient-19);}.cls-21{fill:url(#radial-gradient-20);}.cls-22{fill:url(#radial-gradient-21);}.cls-23{fill:url(#radial-gradient-22);}.cls-24{fill:url(#radial-gradient-23);}.cls-25{fill:url(#radial-gradient-24);}.cls-26{fill:url(#radial-gradient-25);}.cls-27{fill:url(#radial-gradient-26);}.cls-28{fill:url(#radial-gradient-27);}.cls-29{fill:url(#radial-gradient-28);}.cls-30{fill:url(#radial-gradient-29);}.cls-31{fill:url(#radial-gradient-30);}.cls-32{fill:url(#radial-gradient-31);}.cls-33{fill:url(#radial-gradient-32);}.cls-34{fill:url(#radial-gradient-33);}.cls-35{fill:url(#radial-gradient-34);}.cls-36{fill:url(#radial-gradient-35);}.cls-37{fill:url(#radial-gradient-36);}.cls-38{fill:url(#radial-gradient-37);}.cls-39{fill:url(#radial-gradient-38);}.cls-40{fill:url(#radial-gradient-39);}.cls-41{fill:url(#radial-gradient-40);}.cls-42{fill:url(#radial-gradient-41);}.cls-43{fill:url(#radial-gradient-42);}.cls-44{fill:url(#radial-gradient-43);}.cls-45{fill:url(#radial-gradient-44);}.cls-46{fill:url(#radial-gradient-45);}.cls-47{fill:url(#radial-gradient-46);}.cls-48{fill:url(#radial-gradient-47);}.cls-49{fill:url(#radial-gradient-48);}.cls-50{fill:url(#radial-gradient-49);}</style><radialGradient id="radial-gradient" cx="-5145.25" cy="-10979.44" r="4.76" gradientTransform="translate(-4777.11 -10594.61) rotate(180)" gradientUnits="userSpaceOnUse"><stop offset="0" stop-color="#fff"/><stop offset="1"/></radialGradient><radialGradient id="radial-gradient-2" cx="505.02" cy="433.26" r="0.01" gradientTransform="translate(-5903.53 -7345.65) scale(0)" xlink:href="#radial-gradient"/><radialGradient id="radial-gradient-3" cx="-5249.36" cy="-11124.67" r="4.63" xlink:href="#radial-gradient"/><radialGradient id="radial-gradient-4" cx="-5796.74" cy="-10599.23" r="4.63" xlink:href="#radial-gradient"/><radialGradient id="radial-gradient-5" cx="-5384.94" cy="-11042.69" r="3.7" xlink:href="#radial-gradient"/><radialGradient id="radial-gradient-6" cx="-5869.22" cy="-10828.54" r="3.7" xlink:href="#radial-gradient"/><radialGradient id="radial-gradient-7" cx="-6019.09" cy="-10820.06" r="3.7" xlink:href="#radial-gradient"/><radialGradient id="radial-gradient-8" cx="-4991.33" cy="-11133.71" r="9.04" xlink:href="#radial-gradient"/><radialGradient id="radial-gradient-9" cx="-5070.54" cy="-10825.82" r="9.04" xlink:href="#radial-gradient"/><radialGradient id="radial-gradient-10" cx="-5624.6" cy="-10695.02" r="9.04" xlink:href="#radial-gradient"/><radialGradient id="radial-gradient-11" cx="-5326.14" cy="-10963.28" r="6.05" xlink:href="#radial-gradient"/><radialGradient id="radial-gradient-12" cx="-5897.09" cy="-10699.27" r="6.05" xlink:href="#radial-gradient"/><radialGradient id="radial-gradient-13" cx="710.14" cy="309.22" r="0.01" gradientTransform="translate(-5779.32 -7421.07) scale(0)" xlink:href="#radial-gradient"/><radialGradient id="radial-gradient-14" cx="-5373.18" cy="-10782.14" r="11.76" xlink:href="#radial-gradient"/><radialGradient id="radial-gradient-15" cx="-4788.87" cy="-11180.01" r="11.76" gradientTransform="translate(-3840.51 -10950.88) rotate(-175.28)" xlink:href="#radial-gradient"/><radialGradient id="radial-gradient-16" cx="-5154.29" cy="-11137.59" r="5.16" xlink:href="#radial-gradient"/><radialGradient id="radial-gradient-17" cx="-6061.96" cy="-10617.31" r="5.16" xlink:href="#radial-gradient"/><radialGradient id="radial-gradient-18" cx="-5373.18" cy="-10921.32" r="4.9" xlink:href="#radial-gradient"/><radialGradient id="radial-gradient-19" cx="-5672.85" cy="-10975.03" r="4.9" xlink:href="#radial-gradient"/><radialGradient id="radial-gradient-20" cx="-6164.86" cy="-10861.93" r="4.9" xlink:href="#radial-gradient"/><radialGradient id="radial-gradient-21" cx="-6091.34" cy="-11003.31" r="4.9" xlink:href="#radial-gradient"/><radialGradient id="radial-gradient-22" cx="-5539.5" cy="-10770.39" r="11.76" xlink:href="#radial-gradient"/><radialGradient id="radial-gradient-23" cx="-5624.6" cy="-11079.31" r="11.76" xlink:href="#radial-gradient"/><radialGradient id="radial-gradient-24" cx="-5980.88" cy="-11166.96" r="11.76" xlink:href="#radial-gradient"/><radialGradient id="radial-gradient-25" cx="-5857.47" cy="-11104.36" r="11.76" xlink:href="#radial-gradient"/><radialGradient id="radial-gradient-26" cx="-6168.51" cy="-10770.71" r="11.76" gradientTransform="translate(11327.72 -7262.19) rotate(-97.02)" xlink:href="#radial-gradient"/><radialGradient id="radial-gradient-27" cx="-6154.37" cy="-11143.95" r="11.76" xlink:href="#radial-gradient"/><radialGradient id="radial-gradient-28" cx="-5249.36" cy="-10851.84" r="2.89" xlink:href="#radial-gradient"/><radialGradient id="radial-gradient-29" cx="-5337.89" cy="-10993" r="2.89" xlink:href="#radial-gradient"/><radialGradient id="radial-gradient-30" cx="-5927.41" cy="-11221.21" r="2.89" xlink:href="#radial-gradient"/><radialGradient id="radial-gradient-31" cx="-5226.04" cy="-10728.81" r="2.89" xlink:href="#radial-gradient"/><radialGradient id="radial-gradient-32" cx="-5168.86" cy="-10782.14" r="2.89" xlink:href="#radial-gradient"/><radialGradient id="radial-gradient-33" cx="-5789.22" cy="-10868.29" r="2.89" xlink:href="#radial-gradient"/><radialGradient id="radial-gradient-34" cx="-5038.8" cy="-11203.4" r="2.89" xlink:href="#radial-gradient"/><radialGradient id="radial-gradient-35" cx="-5002.54" cy="-10900.94" r="2.89" xlink:href="#radial-gradient"/><radialGradient id="radial-gradient-36" cx="-4874.99" cy="-11091.06" r="2.89" xlink:href="#radial-gradient"/><radialGradient id="radial-gradient-37" cx="-5326.14" cy="-10642.37" r="2.89" xlink:href="#radial-gradient"/><radialGradient id="radial-gradient-38" cx="-5228.93" cy="-11039.8" r="2.89" xlink:href="#radial-gradient"/><radialGradient id="radial-gradient-39" cx="-4995.85" cy="-10993" r="4.52" xlink:href="#radial-gradient"/><radialGradient id="radial-gradient-40" cx="-5075.06" cy="-10891.41" r="4.52" xlink:href="#radial-gradient"/><radialGradient id="radial-gradient-41" cx="-5455.93" cy="-10881.88" r="4.52" xlink:href="#radial-gradient"/><radialGradient id="radial-gradient-42" cx="-5612.84" cy="-10916.43" r="4.52" xlink:href="#radial-gradient"/><radialGradient id="radial-gradient-43" cx="-5415.93" cy="-11200.51" r="4.52" xlink:href="#radial-gradient"/><radialGradient id="radial-gradient-44" cx="-6015.39" cy="-10991.26" r="4.52" xlink:href="#radial-gradient"/><radialGradient id="radial-gradient-45" cx="-5903.15" cy="-10942.1" r="4.52" xlink:href="#radial-gradient"/><radialGradient id="radial-gradient-46" cx="-5487.25" cy="-11108.88" r="4.52" xlink:href="#radial-gradient"/><radialGradient id="radial-gradient-47" cx="-5845.71" cy="-11239.29" r="4.52" xlink:href="#radial-gradient"/><radialGradient id="radial-gradient-48" cx="-5523.22" cy="-11150.26" r="4.52" xlink:href="#radial-gradient"/><radialGradient id="radial-gradient-49" cx="-5786.33" cy="-10890.91" r="4.52" xlink:href="#radial-gradient"/></defs><g class="cls-1"><g id="Capa_2" data-name="Capa 2"><g id="Capa_1-2" data-name="Capa 1"><path class="cls-2" d="M363.39,384.84a4.76,4.76,0,1,1,4.75,4.75A4.76,4.76,0,0,1,363.39,384.84Z"/><path class="cls-3" d="M505,433.26h0Z"/><path class="cls-4" d="M467.62,530.06a4.63,4.63,0,1,1,4.63,4.63A4.62,4.62,0,0,1,467.62,530.06Z"/><path class="cls-5" d="M1015,4.63a4.63,4.63,0,1,1,4.63,4.62A4.63,4.63,0,0,1,1015,4.63Z"/><path class="cls-6" d="M604.13,448.08a3.7,3.7,0,1,1,3.7,3.7A3.7,3.7,0,0,1,604.13,448.08Z"/><path class="cls-7" d="M1088.42,233.93a3.7,3.7,0,1,1,3.7,3.7A3.69,3.69,0,0,1,1088.42,233.93Z"/><path class="cls-8" d="M1238.28,225.45a3.7,3.7,0,1,1,3.7,3.7A3.7,3.7,0,0,1,1238.28,225.45Z"/><path class="cls-9" d="M205.18,539.1a9,9,0,1,1,9,9A9,9,0,0,1,205.18,539.1Z"/><path class="cls-10" d="M284.39,231.21a9,9,0,1,1,9,9A9,9,0,0,1,284.39,231.21Z"/><path class="cls-11" d="M838.45,100.42a9,9,0,1,1,9,9A9,9,0,0,1,838.45,100.42Z"/><path class="cls-12" d="M543,368.67a6,6,0,1,1,6,6.05A6.05,6.05,0,0,1,543,368.67Z"/><path class="cls-13" d="M1113.93,104.66a6.06,6.06,0,1,1,6.06,6.06A6.05,6.05,0,0,1,1113.93,104.66Z"/><path class="cls-14" d="M710.15,309.22h0A0,0,0,0,1,710.15,309.22Z"/><path class="cls-15" d="M584.31,187.54a11.76,11.76,0,1,1,11.76,11.76A11.76,11.76,0,0,1,584.31,187.54Z"/><circle class="cls-16" cx="11.76" cy="585.41" r="11.76" transform="translate(-48.15 2.95) rotate(-4.72)"/><path class="cls-17" d="M372,543a5.16,5.16,0,1,1,5.16,5.16A5.15,5.15,0,0,1,372,543Z"/><path class="cls-18" d="M1279.69,22.7a5.16,5.16,0,1,1,5.16,5.16A5.16,5.16,0,0,1,1279.69,22.7Z"/><circle class="cls-19" cx="596.07" cy="326.72" r="4.9"/><path class="cls-20" d="M890.85,380.43a4.9,4.9,0,1,1,4.9,4.89A4.9,4.9,0,0,1,890.85,380.43Z"/><path class="cls-21" d="M1382.86,267.32a4.9,4.9,0,1,1,4.89,4.9A4.89,4.89,0,0,1,1382.86,267.32Z"/><path class="cls-22" d="M1309.34,408.7a4.9,4.9,0,1,1,4.89,4.9A4.89,4.89,0,0,1,1309.34,408.7Z"/><path class="cls-23" d="M750.63,175.78a11.76,11.76,0,1,1,11.76,11.76A11.77,11.77,0,0,1,750.63,175.78Z"/><path class="cls-24" d="M835.73,484.7a11.76,11.76,0,1,1,11.76,11.76A11.77,11.77,0,0,1,835.73,484.7Z"/><path class="cls-25" d="M1192,572.36a11.76,11.76,0,1,1,11.76,11.75A11.76,11.76,0,0,1,1192,572.36Z"/><path class="cls-26" d="M1068.6,509.76a11.76,11.76,0,1,1,11.76,11.76A11.76,11.76,0,0,1,1068.6,509.76Z"/><circle class="cls-27" cx="1391.4" cy="176.1" r="11.76" transform="translate(1046.61 1535.55) rotate(-82.98)"/><path class="cls-28" d="M1365.5,549.35a11.76,11.76,0,1,1,11.76,11.75A11.75,11.75,0,0,1,1365.5,549.35Z"/><path class="cls-29" d="M469.36,257.24a2.89,2.89,0,1,1,2.89,2.89A2.89,2.89,0,0,1,469.36,257.24Z"/><path class="cls-30" d="M557.89,398.4a2.9,2.9,0,1,1,2.9,2.89A2.9,2.9,0,0,1,557.89,398.4Z"/><path class="cls-31" d="M1147.41,626.61a2.89,2.89,0,1,1,2.89,2.89A2.89,2.89,0,0,1,1147.41,626.61Z"/><path class="cls-32" d="M446,134.21a2.89,2.89,0,1,1,2.89,2.89A2.89,2.89,0,0,1,446,134.21Z"/><path class="cls-33" d="M388.86,187.54a2.9,2.9,0,1,1,2.9,2.89A2.89,2.89,0,0,1,388.86,187.54Z"/><path class="cls-34" d="M1009.22,273.68a2.89,2.89,0,1,1,2.89,2.89A2.89,2.89,0,0,1,1009.22,273.68Z"/><path class="cls-35" d="M258.8,608.79a2.89,2.89,0,1,1,2.89,2.89A2.89,2.89,0,0,1,258.8,608.79Z"/><path class="cls-36" d="M222.54,306.33a2.89,2.89,0,1,1,2.89,2.89A2.89,2.89,0,0,1,222.54,306.33Z"/><path class="cls-37" d="M95,496.46a2.89,2.89,0,1,1,2.89,2.89A2.89,2.89,0,0,1,95,496.46Z"/><path class="cls-38" d="M546.14,47.76A2.89,2.89,0,1,1,549,50.65,2.89,2.89,0,0,1,546.14,47.76Z"/><path class="cls-39" d="M448.93,445.19a2.89,2.89,0,1,1,2.89,2.89A2.89,2.89,0,0,1,448.93,445.19Z"/><path class="cls-40" d="M214.22,398.4a4.52,4.52,0,1,1,4.52,4.51A4.52,4.52,0,0,1,214.22,398.4Z"/><path class="cls-41" d="M293.43,296.8a4.52,4.52,0,1,1,4.52,4.52A4.52,4.52,0,0,1,293.43,296.8Z"/><path class="cls-42" d="M674.3,287.27a4.52,4.52,0,1,1,4.52,4.52A4.53,4.53,0,0,1,674.3,287.27Z"/><path class="cls-43" d="M831.21,321.82a4.52,4.52,0,1,1,4.52,4.52A4.52,4.52,0,0,1,831.21,321.82Z"/><path class="cls-44" d="M634.3,605.9a4.52,4.52,0,1,1,4.52,4.52A4.53,4.53,0,0,1,634.3,605.9Z"/><path class="cls-45" d="M1233.76,396.66a4.52,4.52,0,1,1,4.52,4.52A4.52,4.52,0,0,1,1233.76,396.66Z"/><path class="cls-46" d="M1121.52,347.5A4.52,4.52,0,1,1,1126,352,4.52,4.52,0,0,1,1121.52,347.5Z"/><path class="cls-47" d="M705.62,514.28a4.52,4.52,0,1,1,4.52,4.52A4.52,4.52,0,0,1,705.62,514.28Z"/><path class="cls-48" d="M1064.08,644.68a4.52,4.52,0,1,1,4.52,4.52A4.52,4.52,0,0,1,1064.08,644.68Z"/><path class="cls-49" d="M741.6,555.65a4.52,4.52,0,1,1,4.51,4.52A4.52,4.52,0,0,1,741.6,555.65Z"/><path class="cls-50" d="M1004.7,296.3a4.52,4.52,0,1,1,4.52,4.52A4.53,4.53,0,0,1,1004.7,296.3Z"/></g></g></g></svg>