<svg xmlns="http://www.w3.org/2000/svg" viewBox="0 0 896.43 104.58"><defs><style>.cls-1,.cls-2{fill:#fff;}.cls-2{opacity:0.8;}</style></defs><g id="Capa_2" data-name="Capa 2"><g id="Capa_1-2" data-name="Capa 1"><line class="cls-1" x1="120.87" y1="25.17" x2="120.87" y2="82.43"/><rect class="cls-1" x="120.24" y="25.17" width="1.26" height="57.26"/><path class="cls-1" d="M137.8,98.72V89.8a1,1,0,0,1,.3-.74,1,1,0,0,1,.72-.3h1v3.71h4V88.76h2v10h-2V94.29h-4v4.43Z"/><path class="cls-1" d="M147.76,98.72V89.8a1,1,0,0,1,.3-.74,1,1,0,0,1,.72-.3h1v10Z"/><path class="cls-1" d="M151.35,95.62h2a1.62,1.62,0,0,0,.66,1.22,2.65,2.65,0,0,0,1.56.4,2.27,2.27,0,0,0,1.34-.32,1.06,1.06,0,0,0,.46-.92c0-.62-.86-1.12-2.57-1.51l0,0-.23-.06a5.79,5.79,0,0,1-1.93-.66,1.7,1.7,0,0,1-.8-.93,2.73,2.73,0,0,1-.29-1.33,2.78,2.78,0,0,1,1-2.23,4.43,4.43,0,0,1,2.82-.78,4,4,0,0,1,2.67.81,3.23,3.23,0,0,1,1,2.35h-1.14a1,1,0,0,1-.94-.61,1.35,1.35,0,0,0-.4-.49,2.29,2.29,0,0,0-1.39-.38,1.91,1.91,0,0,0-1.23.32,1.06,1.06,0,0,0-.42.9c0,.52.55.9,1.65,1.15a4.83,4.83,0,0,0,.71.18c.34.11.64.21.9.27l.61.16.79.35a2.48,2.48,0,0,1,.89.9,3,3,0,0,1,.31,1.33,3,3,0,0,1-1,2.43,4.57,4.57,0,0,1-2.9.81,4.31,4.31,0,0,1-2.9-.84A3.24,3.24,0,0,1,151.35,95.62Z"/><path class="cls-1" d="M163.15,95.16v3.56h-2V89.8a1,1,0,0,1,.3-.74,1,1,0,0,1,.72-.3h3.33a3.09,3.09,0,0,1,2.34.81,3.29,3.29,0,0,1,.79,2.4,3.43,3.43,0,0,1-.77,2.38,2.9,2.9,0,0,1-2.21.81Zm0-1.8h2a1.57,1.57,0,0,0,1.14-.34,1.39,1.39,0,0,0,.37-1.1,1.61,1.61,0,0,0-.34-1.08,1.56,1.56,0,0,0-1.05-.34h-2.08Z"/><path class="cls-1" d="M173.6,88.76h1.6l3.55,10h-2.13L176,96.66h-3.81l-.63,2.06h-2.13l3.24-9.29A1,1,0,0,1,173.6,88.76Zm.46,2L172.69,95h2.73Z"/><path class="cls-1" d="M180.34,98.72V89.8a1,1,0,0,1,.3-.74,1.1,1.1,0,0,1,.73-.33h1.08l4,6.86V88.73h2v10h-2.07l-4-6.86v6.86Z"/><path class="cls-1" d="M190.28,98.72V89.8a1,1,0,0,1,.3-.74,1,1,0,0,1,.72-.3h1v10Z"/><path class="cls-1" d="M202.77,95.27A3.93,3.93,0,0,1,201.49,98a4.76,4.76,0,0,1-3.08,1A4.18,4.18,0,0,1,195,97.59a6.94,6.94,0,0,1,0-7.76,4.47,4.47,0,0,1,3.52-1.36,4.4,4.4,0,0,1,3,1,3.74,3.74,0,0,1,1.2,2.6h-1.23a1,1,0,0,1-1-.61,2.66,2.66,0,0,0-.48-.66,2.42,2.42,0,0,0-1.51-.44,2.47,2.47,0,0,0-2,.87,4.1,4.1,0,0,0-.68,2.55,4,4,0,0,0,.68,2.49,2.28,2.28,0,0,0,2,.9,2.36,2.36,0,0,0,1.5-.47,2.43,2.43,0,0,0,.77-1.39Z"/><path class="cls-1" d="M216.63,97.53a3.18,3.18,0,0,1-1.22,1.1,4.07,4.07,0,0,1-1.62.32,4.14,4.14,0,0,1-3.33-1.42,6.48,6.48,0,0,1,0-7.61,4.28,4.28,0,0,1,3.39-1.45,4.85,4.85,0,0,1,3,.9,3.83,3.83,0,0,1,1.4,2.49h-1.37a.94.94,0,0,1-.88-.55,2.12,2.12,0,0,0-.57-.64,2.55,2.55,0,0,0-1.51-.4,2.32,2.32,0,0,0-1.93.89,4.15,4.15,0,0,0-.71,2.55,4,4,0,0,0,.74,2.55,2.41,2.41,0,0,0,2,.9,2.36,2.36,0,0,0,1.59-.55,2.75,2.75,0,0,0,.8-1.6h-1.2a1,1,0,0,1-.72-.3,1,1,0,0,1-.3-.74v-.66h4.07v5.41h-.55a.94.94,0,0,1-1-.81Z"/><path class="cls-1" d="M220.14,98.72V89.8a1,1,0,0,1,.3-.74,1,1,0,0,1,.72-.3h3.73a3.45,3.45,0,0,1,2.36.69,2.74,2.74,0,0,1,.8,2.12,2.68,2.68,0,0,1-.4,1.53,1.93,1.93,0,0,1-1.08.84,1.59,1.59,0,0,1,.91.7,3.51,3.51,0,0,1,.31,1.47l.06,1.19v.38a2.13,2.13,0,0,0,0,.37.87.87,0,0,0,.34.67H226a1.64,1.64,0,0,1-.17-.61,5.92,5.92,0,0,1-.06-.64l0-1.07a2.27,2.27,0,0,0-.34-1.24,1.55,1.55,0,0,0-1.11-.32h-2.13v3.88Zm2-5.62h2.36a1.69,1.69,0,0,0,1.14-.32,1.48,1.48,0,0,0,0-2,1.35,1.35,0,0,0-1-.35h-2.47Z"/><path class="cls-1" d="M229.66,93.74a5.58,5.58,0,0,1,1.25-3.85,4.57,4.57,0,0,1,3.5-1.42,4.63,4.63,0,0,1,3.5,1.42,5.61,5.61,0,0,1,1.28,3.85,5.5,5.5,0,0,1-1.28,3.82,4.58,4.58,0,0,1-3.5,1.39,4.51,4.51,0,0,1-3.5-1.39A5.48,5.48,0,0,1,229.66,93.74Zm2,0a3.92,3.92,0,0,0,.71,2.55,2.4,2.4,0,0,0,2,.89,2.48,2.48,0,0,0,2-.89,4,4,0,0,0,.74-2.55,4.14,4.14,0,0,0-.74-2.58,2.48,2.48,0,0,0-2-.89,2.4,2.4,0,0,0-2,.89A4,4,0,0,0,231.68,93.74Z"/><path class="cls-1" d="M242.89,88.73V95a2.78,2.78,0,0,0,.42,1.7,1.83,1.83,0,0,0,1.45.52,1.9,1.9,0,0,0,1.46-.52,2.56,2.56,0,0,0,.45-1.7V88.73h2v6.46a3.68,3.68,0,0,1-1,2.81,4.92,4.92,0,0,1-5.81,0,3.68,3.68,0,0,1-1-2.81V89.83a1.13,1.13,0,0,1,.3-.77.94.94,0,0,1,.72-.33Z"/><path class="cls-1" d="M252.54,95.16v3.56h-2V89.8a1,1,0,0,1,.3-.74,1,1,0,0,1,.72-.3h3.33a3.07,3.07,0,0,1,2.33.81A3.29,3.29,0,0,1,258,92a3.48,3.48,0,0,1-.77,2.38,2.91,2.91,0,0,1-2.22.81Zm0-1.8h2a1.57,1.57,0,0,0,1.14-.34,1.43,1.43,0,0,0,.37-1.1,1.66,1.66,0,0,0-.34-1.08,1.57,1.57,0,0,0-1.06-.34h-2.07Z"/><path class="cls-1" d="M137.7,76.74V17.5a6.9,6.9,0,0,1,6.93-6.92h6.73V35.2h27.31V10.58h13.85V76.74H178.67V47.31H151.36V76.74Z"/><path class="cls-1" d="M247,68.85a21.22,21.22,0,0,1-8.27,7.31,27.85,27.85,0,0,1-11,2.12q-14.24,0-22.5-9.43-8.47-9.22-8.47-25.38,0-16,8.27-25.2Q213.74,8.65,228,8.65q12.3,0,20.39,6a25.38,25.38,0,0,1,9.42,16.54h-9.23a6.32,6.32,0,0,1-6-3.66,14.89,14.89,0,0,0-3.85-4.23q-3.86-2.68-10.19-2.69-8.28,0-13.08,6-4.82,6.34-4.81,16.93,0,10.77,5,16.92,4.82,6,13.66,6a15.88,15.88,0,0,0,10.77-3.65,17.84,17.84,0,0,0,5.38-10.58h-8.08a6.9,6.9,0,0,1-6.92-6.92V40.77H258v36h-3.65q-5.38,0-6.73-5.39Z"/><path class="cls-1" d="M65.78,18a14.49,14.49,0,1,1,0,20.5A14.49,14.49,0,0,1,65.78,18Z"/><path class="cls-1" d="M91.05,13.26a34.93,34.93,0,0,0-49.41,0c-2.3,2.31-3.22,3.86-3.12,4.93H62.73a15.86,15.86,0,0,1,1.49-1.71A16.69,16.69,0,1,1,87.83,40.09a14.48,14.48,0,0,1-1.44,1.28V65.8c1.06-.06,2.55-1,4.66-3.13A34.93,34.93,0,0,0,91.05,13.26Z"/><path class="cls-1" d="M86.27,18a14.49,14.49,0,1,0,0,20.5A14.49,14.49,0,0,0,86.27,18Z"/><path class="cls-1" d="M15,18.33a14.49,14.49,0,1,0,20.5,0A14.5,14.5,0,0,0,15,18.33Z"/><path class="cls-1" d="M38.52,18.19c-.1-1.07.82-2.62,3.12-4.93A35.11,35.11,0,0,1,50.35,6.9,34.94,34.94,0,0,0,10.23,63c2.31,2.31,3.86,3.22,4.94,3.11V41.86a15.81,15.81,0,0,1-1.72-1.46A16.71,16.71,0,0,1,37.08,16.77a17.08,17.08,0,0,1,1.27,1.43"/><path class="cls-1" d="M86.56,68.79a14.5,14.5,0,1,1-20.52,0A14.49,14.49,0,0,1,86.56,68.79Z"/><path class="cls-1" d="M91.33,94.06a34.92,34.92,0,0,0,0-49.4c-2.3-2.31-3.87-3.23-4.94-3.12V65.75a17,17,0,0,1,1.73,1.47A16.71,16.71,0,1,1,64.49,90.85a17,17,0,0,1-1.27-1.44H38.78c.07,1.06,1,2.55,3.13,4.65A35,35,0,0,0,91.33,94.06Z"/><path class="cls-1" d="M35.73,89.57a14.5,14.5,0,1,1,0-20.5A14.5,14.5,0,0,1,35.73,89.57Z"/><path class="cls-1" d="M10.46,94.36a35,35,0,0,0,49.41,0c2.29-2.31,3.22-3.87,3.11-4.94H38.77a14.73,14.73,0,0,1-1.48,1.71A16.7,16.7,0,0,1,13.68,67.51a17,17,0,0,1,1.42-1.27V41.81c-1,.06-2.53,1-4.64,3.13A34.94,34.94,0,0,0,10.46,94.36Z"/><path class="cls-1" d="M893,70.58A3.4,3.4,0,1,1,889.47,74,3.43,3.43,0,0,1,893,70.58Zm0,.68a2.71,2.71,0,0,0,0,5.41,2.71,2.71,0,0,0,0-5.41Zm-.52,4.46h-.78V72.36a5.92,5.92,0,0,1,1.3-.13,1.9,1.9,0,0,1,1.18.27.9.9,0,0,1,.33.72.88.88,0,0,1-.7.81v0c.33.1.51.37.62.83a2.25,2.25,0,0,0,.24.82h-.84a2.38,2.38,0,0,1-.27-.8c-.06-.37-.27-.54-.7-.54h-.38Zm0-1.9h.38c.43,0,.78-.14.78-.49s-.23-.52-.72-.52a2,2,0,0,0-.44,0Z"/><path class="cls-1" d="M775.15,36.94q-6.21-6.66-17.92-6.73H741.92c-2.15-3.83-7.8-15.23-2.63-21,1.42-1.6,3.91-9.11-4-9.15h-.06c-7.9,0-5.41,7.55-4,9.15,5.17,5.82-.49,17.22-2.64,21h-3.05c-1-1.77-6.33-11.17-2.26-15.75,1-1.15,2.81-6.54-2.87-6.56h0c-5.67,0-3.88,5.41-2.86,6.56,4.07,4.58-1.2,14-2.26,15.75H701.77q-11.71.08-17.91,6.73t-6.28,18.72q0,12,6.28,18.72t17.91,6.72h13.17a26.23,26.23,0,0,1,10-47.65,24.81,24.81,0,0,1,3.31-.36c.86,0,1.7,0,2.54,0a26.24,26.24,0,0,1,24.53,21.63,26.8,26.8,0,0,1,.37,3.52l-12.21,2.16L718.62,64.8c.81,7.82,6.82,10.45,13.5,9.27a12.74,12.74,0,0,0,8-4.55,7.51,7.51,0,0,0,1.32-2.36l13.69-2.41a26.3,26.3,0,0,1-11.09,16.36h13.18q11.71-.06,17.92-6.72t6.27-18.72Q781.42,43.66,775.15,36.94ZM738.81,50.68a1.76,1.76,0,0,0-.09-.2h.06c-2.14-5.21-6.29-7.44-12.13-6.41-6,1.06-9.16,4.41-9.62,10.25h.06c0,.07,0,.14,0,.21Z"/><path class="cls-1" d="M894.84,40.83l-.43.43h0l.43-.43a4.34,4.34,0,0,0-3.11-1.28,4.26,4.26,0,0,0-3.38,1.64L869.81,65.8a8.71,8.71,0,0,1-1.22,1.29,1.68,1.68,0,0,1-2.57,0,18.23,18.23,0,0,1-1.32-1.31L846.36,41.29a4.16,4.16,0,0,0-3.48-1.74,2.53,2.53,0,0,1-1,0H787.67a4.39,4.39,0,0,0-4.4,4.39,4.2,4.2,0,0,0,1.2,3,4.46,4.46,0,0,0,2.81,1.4h23.1V73.17a4.39,4.39,0,0,0,4.4,4.39h0a4.37,4.37,0,0,0,4.36-4.39V48.34h21.56L858.86,72.6a10.78,10.78,0,0,0,13.42,2.89,11.65,11.65,0,0,0,3.78-3.12l19.05-25.66,0-.05a3.91,3.91,0,0,0,1-2.72A4.27,4.27,0,0,0,894.84,40.83Z"/><path class="cls-1" d="M670.22,48.18a10.81,10.81,0,0,0-3.3-5q-3.92-3.51-10.58-3.51h-42.5a4.41,4.41,0,0,0,0,8.81h39.74a11.44,11.44,0,0,1,2.9.27c2.06.59,3.1,2.27,3.1,5.05v.34H620.64q-5.46,0-8.66,3t-3.2,8.45c0,3.64,1.05,6.47,3.17,8.49s5,3,8.69,3h41.08c9.74,0,9.11-7.32,9.11-7.32V54.25A23.28,23.28,0,0,0,670.22,48.18ZM659.58,68.26h-36q-3.57,0-3.57-2.83t3.57-2.9h36Z"/><path class="cls-1" d="M599.22,65.82H568.38a8.72,8.72,0,0,1-6.2-2,8.88,8.88,0,0,1-2.69-6.87V45.33h0a6.12,6.12,0,0,0-12.24,0h0V58.09a25.58,25.58,0,0,0,1.41,8.48q3.71,10.52,16.64,10.51h34.07v0a5.62,5.62,0,0,0-.13-11.24Z"/><path class="cls-1" d="M547.91,90h1v7.3h4.36v.59h-5.31Z"/><path class="cls-1" d="M565.7,90h1.18L570,97.92h-1l-.86-2.3h-3.68l-.86,2.3h-1Zm2.23,5-1.62-4.43h0L564.66,95Z"/><path class="cls-1" d="M581.2,90.63h-2.71V90h6.37v.6h-2.71v7.29h-.95Z"/><path class="cls-1" d="M595.07,90H596v7.89h-.95Z"/><path class="cls-1" d="M607,90h1.26l4,6.87h0V90h1v7.89H612l-4-6.87h0v6.87H607Z"/><path class="cls-1" d="M626.39,90h1.18l3.11,7.89h-1l-.86-2.3h-3.69l-.85,2.3h-1Zm2.22,5L627,90.59h0L625.34,95Z"/><path class="cls-1" d="M640.82,90h1.63L645,97h0l2.54-7h1.55v7.89h-1V90.7h0l-2.72,7.22h-.89l-2.72-7.22h0v7.22h-.94Z"/><path class="cls-1" d="M660.08,90h5.21v.6H661V93.5h4v.6h-4v3.23h4.41v.59h-5.35Z"/><path class="cls-1" d="M675.86,90H679c1.77,0,2.73.74,2.73,2a1.93,1.93,0,0,1-1.91,2v0c1.31.09,1.76.64,1.8,1.87l0,.86a1.49,1.49,0,0,0,.44,1.16H681a1.82,1.82,0,0,1-.28-1.1l0-.67c-.08-1.39-.38-1.83-2.09-1.83H676.8v3.6h-.94Zm.94,3.69h1.62c1.49,0,2.36-.49,2.36-1.55s-.54-1.54-2.25-1.54H676.8Z"/><path class="cls-1" d="M692.53,90h.94v7.89h-.94Z"/><path class="cls-1" d="M710.82,95.25a2.81,2.81,0,0,1-3.13,2.81c-2.16,0-3.36-1.25-3.36-4.08s1.2-4.08,3.36-4.08,3,1.14,3,2.43h-.94c0-1.07-.72-1.83-2.08-1.83s-2.41.91-2.41,3.48.92,3.48,2.41,3.48a2.09,2.09,0,0,0,2.18-2.21Z"/><path class="cls-1" d="M723.58,90h1.18l3.11,7.89h-1l-.85-2.3h-3.68l-.86,2.3h-1Zm2.22,5-1.62-4.43h0L722.53,95Z"/><path class="cls-1" d="M755,90h5.21v.6H756V93.5h4v.6h-4v3.23h4.4v.59H755Z"/><path class="cls-1" d="M772.79,90.63h-2.71V90h6.37v.6h-2.72v7.29h-.94Z"/><path class="cls-1" d="M791.65,94h-4.11v3.93h-.94V90h.94v3.36h4.11V90h1v7.89h-1Z"/><path class="cls-1" d="M803.49,90h1.27l4,6.87h0V90h.94v7.89h-1.27l-4-6.87h0v6.87h-.94Z"/><path class="cls-1" d="M820.7,90h.94v7.89h-.94Z"/><path class="cls-1" d="M839,95.25a2.8,2.8,0,0,1-3.12,2.81c-2.17,0-3.36-1.25-3.36-4.08s1.19-4.08,3.36-4.08,3,1.14,3,2.43h-.95a1.81,1.81,0,0,0-2.07-1.83c-1.49,0-2.42.91-2.42,3.48s.93,3.48,2.42,3.48A2.08,2.08,0,0,0,838,95.25Z"/><path class="cls-1" d="M863.69,90.63H861V90h6.36v.6h-2.71v7.29h-.94Z"/><path class="cls-1" d="M876.72,90h1l2.34,7.14h0L882.43,90h1l-2.76,7.89h-1.18Z"/><path class="cls-2" d="M738.81,50.68a1.76,1.76,0,0,0-.09-.2h.06c-2.14-5.21-6.29-7.44-12.13-6.41-6,1.06-9.16,4.41-9.62,10.25h.06c0,.07,0,.14,0,.21Z"/><path class="cls-2" d="M755.32,54.73a26.8,26.8,0,0,1,.37,3.52l-12.21,2.16c14.92-1.68,27.33-6,34.32-11.67a21.1,21.1,0,0,0-4.94-9.25q-5.88-6.32-17-6.39H730.79A26.24,26.24,0,0,1,755.32,54.73Z"/><path class="cls-2" d="M724.94,33.46a24.81,24.81,0,0,1,3.31-.36H703.16q-11.13.07-17,6.39a21.1,21.1,0,0,0-4.94,9.25c5,4,12.68,7.39,22.08,9.58A26.23,26.23,0,0,1,724.94,33.46Z"/></g></g></svg>