<svg width="26" height="26" viewBox="0 0 26 26" fill="none" xmlns="http://www.w3.org/2000/svg">
<path d="M10.8531 20.6602V13.8811H8.39325V11.0726H10.8531V8.9323C10.8531 6.5015 12.2961 5.16504 14.5138 5.16504C15.5694 5.16504 16.6735 5.34904 16.6735 5.34904V7.74111H15.4532C14.2524 7.74111 13.8747 8.48681 13.8747 9.25188V11.0726H16.5669L16.1311 13.8811H13.8747V20.6602H10.8531Z" fill="white"/>
<path d="M7.48932 0H18.3359C22.468 0 25.8252 3.35728 25.8252 7.48932V18.3359C25.8252 20.3222 25.0362 22.2272 23.6317 23.6317C22.2272 25.0362 20.3222 25.8252 18.3359 25.8252H7.48932C3.35728 25.8252 0 22.468 0 18.3359V7.48932C0 5.50303 0.789051 3.59809 2.19357 2.19357C3.59809 0.789051 5.50303 0 7.48932 0ZM7.23107 2.58252C5.9982 2.58252 4.81582 3.07228 3.94405 3.94405C3.07228 4.81582 2.58252 5.9982 2.58252 7.23107V18.5942C2.58252 21.1638 4.66146 23.2427 7.23107 23.2427H18.5942C19.827 23.2427 21.0094 22.753 21.8812 21.8812C22.753 21.0094 23.2427 19.827 23.2427 18.5942V7.23107C23.2427 4.66146 21.1638 2.58252 18.5942 2.58252H7.23107Z" fill="white"/>
</svg>
