<svg width="142" height="21" viewBox="0 0 142 21" fill="none" xmlns="http://www.w3.org/2000/svg">
<g clip-path="url(#clip0_84_39)">
<path d="M13.9956 13.0706H17.5231V16.0246H13.6442L13.0993 20.3624H10.0378L10.5827 16.0246H6.59626L6.05135 20.3624H3.01134L3.55625 16.0246H0V13.0706H3.90757L4.47399 8.67553H0.924911V5.72155H4.82531L5.37022 1.38379H8.41024L7.86533 5.72155H11.8518L12.3967 1.38379H15.4367L14.8918 5.72155H18.4193L18.448 8.67553H14.5405L13.9956 13.0706ZM10.934 13.0706L11.5004 8.67553H7.514L6.94759 13.0706H10.934Z" fill="white"/>
<path d="M19.7458 18.4981L21.2371 15.1856C22.836 16.3543 25.2236 17.1645 27.5036 17.1645C30.1062 17.1645 31.1674 16.2969 31.1674 15.1283C31.1674 11.572 20.1258 14.0169 20.1258 6.96896C20.1258 3.74253 22.7284 1.05383 28.1273 1.05383C30.5149 1.05383 32.9527 1.62025 34.7164 2.73875L33.3613 6.07273C31.5976 5.06895 29.7836 4.5814 28.0987 4.5814C25.496 4.5814 24.4922 5.5565 24.4922 6.75386C24.4922 10.2528 35.5338 7.83651 35.5338 14.8056C35.5338 17.9819 32.9025 20.6921 27.4821 20.6921C24.4707 20.6921 21.4307 19.7958 19.753 18.4981H19.7458Z" fill="white"/>
<path d="M52.4475 14.268H41.4059C41.8146 16.082 43.3561 17.1933 45.5859 17.1933C47.1346 17.1933 48.2459 16.7344 49.2497 15.7808L51.501 18.2186C50.1459 19.7673 48.1097 20.5775 45.4784 20.5775C40.4308 20.5775 37.1542 17.4012 37.1542 13.0635C37.1542 8.72571 40.4882 5.54946 44.9406 5.54946C49.3931 5.54946 52.5335 8.42458 52.5335 13.1137C52.5335 13.4435 52.4761 13.9023 52.4546 14.2537L52.4475 14.268ZM41.3557 11.8016H48.5399C48.2388 9.95892 46.855 8.76156 44.9621 8.76156C43.0693 8.76156 41.6497 9.93024 41.3557 11.8016ZM45.6935 3.90757H42.381L46.0448 0H50.6048L45.6935 3.90757Z" fill="white"/>
<path d="M68.4721 10.5755H72.4872V18.276C70.4008 19.8462 67.5257 20.6922 64.8083 20.6922C58.843 20.6922 54.4479 16.5982 54.4479 10.8767C54.4479 5.15514 58.843 1.06116 64.8872 1.06116C68.2212 1.06116 70.9887 2.20116 72.8314 4.34495L70.0136 6.9476C68.6298 5.48495 67.031 4.80382 65.1023 4.80382C61.417 4.80382 58.8932 7.27025 58.8932 10.8767C58.8932 14.4831 61.417 16.9495 65.0521 16.9495C66.2423 16.9495 67.3536 16.7345 68.4721 16.1394V10.5827V10.5755Z" fill="white"/>
<path d="M76.2585 0.243652H80.4888V20.3694H76.2585V0.243652Z" fill="white"/>
<path d="M83.3352 13.0706C83.3352 8.67553 86.7265 5.55664 91.3654 5.55664C96.0043 5.55664 99.367 8.67553 99.367 13.0706C99.367 17.4658 96.0043 20.5846 91.3654 20.5846C86.7265 20.5846 83.3352 17.4658 83.3352 13.0706ZM95.0794 13.0706C95.0794 10.5469 93.4805 9.03402 91.3654 9.03402C89.2503 9.03402 87.6227 10.554 87.6227 13.0706C87.6227 15.5873 89.2503 17.1144 91.3654 17.1144C93.4805 17.1144 95.0794 15.5944 95.0794 13.0706Z" fill="white"/>
<path d="M118.073 13.0705C118.073 17.6521 114.897 20.5845 110.803 20.5845C108.853 20.5845 107.275 19.9607 106.221 18.6845V20.3694H102.178V0.243652H106.408V7.3203C107.49 6.12293 108.982 5.55651 110.803 5.55651C114.897 5.55651 118.073 8.48181 118.073 13.0705ZM113.786 13.0705C113.786 10.5467 112.187 9.03389 110.072 9.03389C107.956 9.03389 106.358 10.5539 106.358 13.0705C106.358 15.5871 107.956 17.1143 110.072 17.1143C112.187 17.1143 113.786 15.5943 113.786 13.0705Z" fill="white"/>
<path d="M133.804 12.0454V20.3696H129.846V18.5556C129.057 19.882 127.544 20.5919 125.401 20.5919C121.981 20.5919 119.952 18.6918 119.952 16.1681C119.952 13.6443 121.766 11.8016 126.218 11.8016H129.581C129.581 9.98764 128.498 8.9265 126.218 8.9265C124.669 8.9265 123.071 9.44273 122.017 10.2816L120.497 7.32763C122.095 6.18762 124.454 5.56384 126.792 5.56384C131.237 5.56384 133.818 7.62876 133.818 12.0454H133.804ZM129.574 15.7594V14.268H126.67C124.691 14.268 124.067 14.9994 124.067 15.9745C124.067 17.0284 124.963 17.7383 126.455 17.7383C127.867 17.7383 129.086 17.0858 129.574 15.7594Z" fill="white"/>
<path d="M137.625 0.243652H141.856V20.3694H137.625V0.243652Z" fill="white"/>
</g>
<defs>
<clipPath id="clip0_84_39">
<rect width="141.856" height="20.6922" fill="white"/>
</clipPath>
</defs>
</svg>
