<svg width="123" height="20" viewBox="0 0 123 20" fill="none" xmlns="http://www.w3.org/2000/svg">
<path d="M0 17.5307L1.41333 14.3982C2.92857 15.5058 5.19125 16.2736 7.35201 16.2736C9.81853 16.2736 10.8242 15.4514 10.8242 14.3439C10.8242 10.9736 0.360125 13.2907 0.360125 6.60458C0.360125 3.5469 2.82665 0.99884 7.94316 0.99884C10.2058 0.99884 12.5161 1.53564 14.1876 2.59563L12.9034 5.75522C11.2319 4.80395 9.51276 4.3419 7.91598 4.3419C5.44945 4.3419 4.49817 5.266 4.49817 6.40073C4.49817 9.71661 14.9622 7.42675 14.9622 14.0313C14.9622 17.0414 12.4685 19.6099 7.33162 19.6099C4.47779 19.6099 1.59679 18.7605 0.00679628 17.5307H0Z" fill="white"/>
<path d="M30.998 13.5217H20.534C20.9213 15.2408 22.3822 16.294 24.4954 16.294C25.963 16.294 27.0162 15.8591 27.9675 14.9554L30.1011 17.2657C28.8169 18.7333 26.8871 19.5012 24.3934 19.5012C19.6099 19.5012 16.5046 16.491 16.5046 12.3802C16.5046 8.2693 19.6642 5.2592 23.8838 5.2592C28.1034 5.2592 31.0796 7.98392 31.0796 12.4277C31.0796 12.7335 31.0252 13.1752 31.0048 13.5081L30.998 13.5217ZM20.4864 11.1843H27.2948C27.0094 9.43802 25.698 8.30328 23.9042 8.30328C22.1104 8.30328 20.765 9.41084 20.4864 11.1843ZM24.5973 3.70318H21.4581L24.9302 0H29.2517L24.5973 3.70318Z" fill="white"/>
<path d="M53.4549 10.0224H57.26V17.32C55.2827 18.8081 52.558 19.6099 49.9827 19.6099C44.3294 19.6099 40.1642 15.73 40.1642 10.3077C40.1642 4.88546 44.3294 1.00562 50.0575 1.00562C53.2171 1.00562 55.8399 2.08599 57.5861 4.11765L54.9158 6.58417C53.6044 5.19802 52.0891 4.55252 50.2613 4.55252C46.7688 4.55252 44.377 6.88994 44.377 10.3077C44.377 13.7255 46.7688 16.063 50.2137 16.063C51.3417 16.063 52.3949 15.8591 53.4549 15.2951V10.0291V10.0224Z" fill="white"/>
<path d="M60.834 0.231018H64.8429V19.3041H60.834V0.231018Z" fill="white"/>
<path d="M67.5406 12.387C67.5406 8.22174 70.7546 5.26599 75.1509 5.26599C79.5471 5.26599 82.7339 8.22174 82.7339 12.387C82.7339 16.5522 79.5471 19.508 75.1509 19.508C70.7546 19.508 67.5406 16.5522 67.5406 12.387ZM78.6706 12.387C78.6706 9.99519 77.1553 8.55469 75.1509 8.55469C73.1464 8.55469 71.604 9.99519 71.604 12.387C71.604 14.7788 73.1464 16.2193 75.1509 16.2193C77.1553 16.2193 78.6706 14.7788 78.6706 12.387Z" fill="white"/>
<path d="M100.461 12.387C100.461 16.7289 97.4512 19.508 93.5714 19.508C91.7232 19.508 90.2283 18.9168 89.2295 17.7073V19.3041H85.3972V0.231018H89.4062V6.93752C90.4322 5.80278 91.8455 5.26599 93.5714 5.26599C97.4512 5.26599 100.461 8.03828 100.461 12.387ZM96.398 12.387C96.398 9.99519 94.8828 8.55468 92.8783 8.55468C90.8739 8.55468 89.3586 9.99519 89.3586 12.387C89.3586 14.7787 90.8739 16.2193 92.8783 16.2193C94.8828 16.2193 96.398 14.7787 96.398 12.387Z" fill="white"/>
<path d="M115.369 11.4154V19.3042H111.619V17.5851C110.871 18.8421 109.437 19.5148 107.406 19.5148C104.165 19.5148 102.242 17.7142 102.242 15.3224C102.242 12.9306 103.961 11.1843 108.18 11.1843H111.367C111.367 9.46524 110.341 8.4596 108.18 8.4596C106.713 8.4596 105.197 8.94883 104.199 9.74383L102.758 6.94435C104.273 5.86398 106.509 5.27283 108.724 5.27283C112.937 5.27283 115.383 7.22974 115.383 11.4154H115.369ZM111.36 14.9351V13.5218H108.608C106.733 13.5218 106.142 14.2148 106.142 15.1389C106.142 16.1446 106.991 16.8105 108.405 16.8105C109.743 16.8105 110.898 16.1921 111.36 14.9351Z" fill="white"/>
<path d="M118.991 0.231018H123V19.3041H118.991V0.231018Z" fill="white"/>
</svg>
