<svg width="622" height="590" viewBox="0 0 622 590" fill="none" xmlns="http://www.w3.org/2000/svg">
<path d="M212.837 482.134C212.837 482.134 196.485 543.061 189.801 588.393H446.894C446.894 588.393 443.182 504.432 423.12 458.361C403.057 412.289 212.837 482.134 212.837 482.134Z" fill="#1433B5"/>
<path d="M139.125 300.221C139.125 300.221 137.998 286.143 132.878 283.704C127.758 281.266 121.044 295.353 112.106 299.152C103.168 302.951 87.4089 291.856 76.2749 302.98C65.1312 314.114 88.8469 347.069 141.933 326.453C195.018 305.827 139.125 300.221 139.125 300.221Z" fill="white"/>
<path d="M75.2159 319.244C71.0674 312.88 71.0771 306.089 75.2354 301.94C82.5706 294.615 91.5478 296.169 99.466 297.549C104.081 298.355 108.443 299.113 111.533 297.802C115.37 296.169 118.916 292.341 122.045 288.96C126.193 284.472 129.778 280.605 133.509 282.383C138.454 284.744 140.048 295.14 140.475 298.899C146.606 299.609 165.192 302.397 166.251 310.189C166.989 315.639 159.44 321.245 142.477 327.832C133.198 331.437 124.901 333.409 117.556 334.196C94.1321 336.703 80.3361 327.075 75.2257 319.254L75.2159 319.244ZM124.202 290.952C120.869 294.557 117.1 298.627 112.679 300.503C108.793 302.154 104.013 301.319 98.9607 300.444C91.3923 299.123 83.5713 297.772 77.3145 304.02C74.1861 307.148 74.3319 312.492 77.6837 317.631C83.9017 327.172 104.314 339.481 141.398 325.073C161.888 317.116 163.559 312.278 163.326 310.578C162.714 306.07 148.714 302.669 138.979 301.688C138.27 301.62 137.716 301.056 137.658 300.337C137.25 295.217 135.413 286.541 132.246 285.035C132.003 284.919 131.741 284.88 131.459 284.919C129.613 285.113 126.874 288.076 124.211 290.962L124.202 290.952Z" fill="#1433B5"/>
<path d="M578.87 124.826C566.988 130.306 549.791 128.965 531.837 133.065C511.609 137.689 513.96 164.135 511.842 177.086L548.81 185.257C548.81 185.257 545.293 173.54 550.248 160.861C588.43 152.136 590.509 119.444 578.87 124.816V124.826Z" fill="white"/>
<path d="M548.499 186.704L511.531 178.534C510.774 178.368 510.268 177.63 510.395 176.862C510.783 174.502 511.016 171.606 511.279 168.546C512.435 154.662 514.009 135.639 531.516 131.637C539.172 129.888 546.527 129.14 553.658 128.401C563.286 127.42 571.612 126.555 578.267 123.495C581.406 122.047 583.397 123.087 584.311 123.825C586.477 125.594 587.157 129.305 586.118 133.755C583.815 143.606 573.332 156.868 551.365 162.134C547.071 173.89 550.209 184.742 550.238 184.849C550.384 185.344 550.258 185.888 549.908 186.277C549.665 186.539 549.335 186.704 548.985 186.733C548.829 186.753 548.674 186.733 548.509 186.704H548.499ZM579.492 126.157C572.399 129.431 563.442 130.335 553.95 131.326C546.925 132.054 539.648 132.793 532.167 134.503C516.758 138.02 515.35 155.08 514.203 168.779C513.989 171.344 513.785 173.783 513.494 175.949L546.838 183.323C546.041 179.165 545.06 170.071 548.868 160.336C549.043 159.88 549.432 159.549 549.908 159.433C571.078 154.594 581.085 142.207 583.222 133.065C584.136 129.149 583.368 126.857 582.426 126.089C581.998 125.739 581.474 125.662 580.939 125.71C580.405 125.759 579.919 125.943 579.482 126.147L579.492 126.157Z" fill="#1433B5"/>
<path d="M124.134 349.955C124.658 353.151 126.99 355.745 130.08 356.717C138.27 359.272 156.321 364.557 180.659 369.735C207.037 375.322 240.817 380.763 277.426 382.414C342.393 385.358 416.261 376.332 473.621 334.944C498.347 317.126 520.013 293.284 536.578 261.805C548.47 239.217 557.709 212.674 563.577 181.594C563.937 179.738 563.509 177.834 562.431 176.318C558.098 170.168 544.428 155.352 512.367 153.399C509.413 153.195 506.635 154.954 505.566 157.713C495.656 183.051 432.709 305.574 146.79 290.874C144.022 290.719 141.34 291.885 139.591 294.022C133.296 301.804 119.577 322.392 124.144 349.945L124.134 349.955Z" fill="#01CE93"/>
<path d="M466.539 341.424C466.762 341.405 466.986 341.317 467.19 341.191C499.97 319.574 525.434 289.699 542.883 252.391C543.233 251.653 542.913 250.778 542.174 250.429C541.436 250.079 540.561 250.399 540.212 251.138C522.996 287.94 497.881 317.407 465.558 338.723C464.877 339.17 464.693 340.084 465.14 340.764C465.451 341.24 465.995 341.473 466.529 341.415L466.539 341.424Z" fill="#1433B5"/>
<path d="M420.526 530.11C419.807 530.11 419.175 529.585 419.068 528.847C411.976 480.638 399.812 469.223 399.686 469.116C399.084 468.572 399.025 467.649 399.569 467.037C400.104 466.425 401.027 466.366 401.639 466.901C402.173 467.367 414.696 478.802 421.983 528.419C422.1 529.226 421.546 529.974 420.74 530.091C420.662 530.1 420.594 530.11 420.526 530.11Z" fill="white"/>
<path d="M403.164 572.081C351.38 572.081 329.375 550.396 320.058 530.926C313.15 516.479 312.664 502.003 313.228 497.398C313.179 497.233 313.16 497.048 313.169 496.863H313.296C313.383 496.358 313.48 496.047 313.587 495.94C314.024 495.503 314.685 495.377 315.248 495.639C315.812 495.901 316.152 496.504 316.094 497.126C316.094 497.145 316.094 497.165 316.094 497.174C315.987 498.389 313.937 525.903 334.689 546.617C353.042 564.94 383.209 572.139 424.364 568.02C425.19 567.942 425.889 568.525 425.976 569.341C426.054 570.148 425.471 570.876 424.655 570.954C416.97 571.722 409.819 572.081 403.164 572.081Z" fill="white"/>
<path d="M285.227 384.173C285.946 384.095 286.519 383.493 286.539 382.754C286.568 381.938 285.927 381.258 285.111 381.239C211.778 379.043 148.238 360.836 130.517 355.308C127.913 354.492 126.028 352.354 125.581 349.731C121.093 322.683 134.685 302.426 140.728 294.974C142.156 293.216 144.381 292.235 146.684 292.351C183.437 294.246 218.336 293.925 250.416 291.418C251.291 291.341 251.835 290.651 251.767 289.835C251.699 289.019 250.99 288.416 250.183 288.484C218.229 290.981 183.457 291.292 146.829 289.417C143.575 289.242 140.446 290.632 138.425 293.119C132.12 300.881 117.974 321.984 122.657 350.217C123.279 353.948 125.941 356.979 129.613 358.125C147.432 363.683 211.282 381.987 284.994 384.192C285.062 384.192 285.13 384.192 285.198 384.192L285.227 384.173Z" fill="#1433B5"/>
<path d="M302.045 285.133C302.045 285.133 302.103 285.133 302.132 285.123C397.529 269.005 449.245 232.455 475.837 204.62C476.4 204.027 476.381 203.104 475.788 202.541C475.195 201.977 474.272 202.006 473.709 202.589C447.428 230.094 396.237 266.246 301.647 282.228C300.84 282.364 300.306 283.121 300.442 283.928C300.568 284.695 301.277 285.23 302.045 285.142V285.133Z" fill="#1433B5"/>
<path d="M557.466 210.177C558.049 210.119 558.564 209.701 558.729 209.108C561.139 200.394 563.266 191.232 565.035 181.866C565.452 179.661 564.947 177.329 563.636 175.463C559.118 169.051 545.098 153.924 512.454 151.923C508.821 151.69 505.508 153.817 504.196 157.179C503.72 158.403 503.108 159.86 502.36 161.512C502.03 162.25 502.36 163.125 503.098 163.465C503.836 163.795 504.711 163.465 505.051 162.726C505.818 161.016 506.45 159.52 506.946 158.257C507.801 156.081 509.957 154.721 512.279 154.857C543.641 156.78 556.961 171.091 561.236 177.154C562.091 178.359 562.421 179.874 562.149 181.312C560.391 190.591 558.292 199.675 555.902 208.312C555.688 209.099 556.145 209.905 556.932 210.119C557.117 210.167 557.301 210.187 557.486 210.167L557.466 210.177Z" fill="#1433B5"/>
<path d="M315.19 269.51C315.19 269.51 231.821 317.573 204.588 485.399C203.646 491.219 206.551 497.009 211.846 499.603C221.872 504.539 240.72 511.378 268.944 511.99C329.404 513.312 359.464 478.258 424.49 474.935C430.737 474.615 435.167 468.727 433.652 462.665C424.733 426.814 394.926 320.07 345.085 269.5H315.19V269.51Z" fill="#01CE93"/>
<path d="M283.712 299.084C283.362 299.084 283.012 298.967 282.74 298.715C282.128 298.18 282.07 297.248 282.614 296.636C283.916 295.159 285.198 293.75 286.451 292.409C287.015 291.817 287.938 291.788 288.53 292.332C289.123 292.885 289.162 293.818 288.608 294.411C287.374 295.742 286.111 297.131 284.819 298.579C284.528 298.909 284.12 299.074 283.712 299.074V299.084Z" fill="#1433B5"/>
<path d="M446.554 424.366C447.011 423.968 447.185 423.317 446.962 422.724C440.054 404.964 434.293 387.874 429.824 371.931C429.6 371.144 428.794 370.688 428.007 370.911C427.23 371.125 426.763 371.941 426.987 372.728C431.485 388.758 437.285 405.945 444.222 423.783C444.514 424.541 445.369 424.92 446.126 424.619C446.292 424.551 446.437 424.463 446.564 424.356L446.554 424.366Z" fill="#1433B5"/>
<path d="M204.588 486.876C204.51 486.876 204.433 486.876 204.355 486.856C203.548 486.73 203.004 485.972 203.14 485.166C213.915 418.77 234.551 363.168 264.465 319.914C264.931 319.244 265.845 319.079 266.515 319.535C267.185 320.002 267.35 320.915 266.894 321.585C237.232 364.479 216.762 419.673 206.055 485.642C205.939 486.361 205.317 486.876 204.607 486.876H204.588Z" fill="#1433B5"/>
<path d="M570.212 131.788C598.542 115.883 608.615 80.0234 592.71 51.693C576.805 23.3626 540.946 13.2897 512.615 29.1944C484.285 45.0992 474.212 80.9589 490.117 109.289C506.021 137.62 541.881 147.693 570.212 131.788Z" fill="url(#paint0_linear_1_786)"/>
<path d="M538.502 140.623C505.294 139.011 479.587 110.68 481.19 77.4724C482.803 44.2647 511.133 18.5671 544.341 20.1702C560.43 20.9474 575.246 27.9523 586.069 39.8733C596.892 51.8039 602.43 67.2323 601.643 83.3212C600.186 113.362 576.869 137.262 547.858 140.361C544.798 140.691 541.659 140.789 538.492 140.633L538.502 140.623ZM484.134 77.6085C482.599 109.194 507.053 136.145 538.638 137.67C570.194 139.215 597.174 114.751 598.699 83.1657C599.448 67.8637 594.182 53.1933 583.883 41.8455C573.585 30.4978 559.488 23.8426 544.186 23.1042C541.164 22.9585 538.191 23.0459 535.276 23.3568C507.684 26.3104 485.504 49.0448 484.124 77.6085H484.134Z" fill="#1433B5"/>
<path d="M607.336 114.158C607.812 114.11 608.259 113.828 608.493 113.362C613.36 103.84 616.09 93.5614 616.615 82.7965C618.305 47.9955 596.164 16.828 562.791 6.99591C562.013 6.77245 561.188 7.20962 560.964 7.99658C560.731 8.77383 561.178 9.59965 561.965 9.82311C594.036 19.2666 615.303 49.2099 613.681 82.6508C613.175 92.9882 610.552 102.869 605.879 112.021C605.51 112.74 605.792 113.634 606.52 114.003C606.783 114.139 607.074 114.187 607.346 114.158H607.336Z" fill="#1433B5"/>
<path d="M596.766 129.606C597.116 129.567 597.456 129.402 597.708 129.12C598.466 128.265 599.205 127.401 599.923 126.516C600.438 125.885 600.341 124.962 599.71 124.447C599.078 123.932 598.146 124.029 597.64 124.661C596.951 125.516 596.241 126.351 595.513 127.167C594.968 127.77 595.027 128.702 595.639 129.247C595.959 129.538 596.377 129.655 596.776 129.606H596.766Z" fill="#1433B5"/>
<path d="M490.488 133.735C490.818 133.696 491.139 133.551 491.391 133.288C491.955 132.705 491.935 131.773 491.352 131.209C490.595 130.48 489.856 129.742 489.137 128.975C488.574 128.382 487.641 128.362 487.058 128.916C486.466 129.48 486.446 130.412 487 130.995C487.748 131.792 488.525 132.56 489.312 133.317C489.642 133.628 490.07 133.764 490.488 133.716V133.735Z" fill="#1433B5"/>
<path d="M480.422 121.736C480.656 121.707 480.879 121.63 481.083 121.494C481.763 121.037 481.938 120.124 481.481 119.453C472.747 106.473 468.54 91.3268 469.298 75.6556C469.337 74.8395 468.705 74.1496 467.899 74.1108C467.083 74.0816 466.393 74.7034 466.354 75.5098C465.567 91.8222 469.949 107.581 479.033 121.095C479.354 121.562 479.888 121.795 480.413 121.736H480.422Z" fill="#1433B5"/>
<path d="M567.493 41.6803C567.92 41.6318 568.319 41.4083 568.571 41.0197C569.008 40.3396 568.814 39.4264 568.134 38.9794C567.328 38.4645 566.512 37.969 565.676 37.4929C564.967 37.0946 564.073 37.3472 563.665 38.0565C563.267 38.7657 563.519 39.6595 564.228 40.0676C565.015 40.5048 565.783 40.9711 566.531 41.4569C566.822 41.6512 567.162 41.7192 567.483 41.6803H567.493Z" fill="#F5F6FC"/>
<path d="M546.692 129.383C570.398 126.847 589.45 107.319 590.645 82.7771C590.684 81.961 590.052 81.2712 589.246 81.2323C588.42 81.2129 587.74 81.825 587.701 82.6314C586.467 108.144 564.675 127.916 539.191 126.662C530.127 126.225 521.48 123.174 514.174 117.85C513.513 117.374 512.6 117.51 512.114 118.171C511.638 118.831 511.774 119.745 512.435 120.231C520.197 125.895 529.398 129.13 539.036 129.606C541.63 129.732 544.185 129.655 546.692 129.383Z" fill="#F5F6FC"/>
<path d="M506.537 114.353C506.839 114.323 507.14 114.197 507.383 113.974C507.985 113.42 508.014 112.487 507.46 111.895C506.839 111.224 506.236 110.534 505.663 109.835C505.148 109.213 504.215 109.116 503.594 109.631C502.962 110.146 502.875 111.078 503.39 111.7C504.011 112.448 504.643 113.177 505.304 113.896C505.634 114.255 506.1 114.411 506.547 114.362L506.537 114.353Z" fill="#F5F6FC"/>
<path d="M499.824 105.123C500.018 105.103 500.203 105.045 500.388 104.948C501.097 104.55 501.349 103.656 500.961 102.947C496.744 95.3976 494.743 86.8285 495.161 78.1525C496.395 52.6395 518.177 32.8781 543.67 34.1217C548.12 34.3354 552.492 35.1807 556.66 36.6283C557.428 36.8906 558.263 36.4923 558.535 35.7248C558.807 34.9572 558.399 34.1216 557.632 33.8496C553.192 32.3048 548.548 31.411 543.816 31.1778C530.671 30.5463 518.06 35.0544 508.315 43.9052C498.571 52.7464 492.848 64.8616 492.217 78.0068C491.77 87.2365 493.898 96.3594 498.386 104.384C498.687 104.919 499.261 105.191 499.834 105.133L499.824 105.123Z" fill="#F5F6FC"/>
<path d="M107.351 307.983C136.146 292.936 147.291 257.395 132.243 228.6C117.196 199.805 81.6549 188.66 52.8598 203.707C24.0648 218.755 12.9201 254.296 27.9674 283.091C43.0147 311.886 78.5558 323.031 107.351 307.983Z" fill="url(#paint1_linear_1_786)"/>
<path d="M66.0934 314.483C50.4222 310.743 37.1604 301.124 28.7274 287.396C11.3268 259.066 20.2166 221.855 48.5471 204.455C76.8776 187.064 114.088 195.944 131.489 224.274C148.889 252.605 139.999 289.815 111.669 307.216C103.906 311.986 95.3566 314.881 86.564 315.824C79.802 316.543 72.904 316.115 66.0934 314.483ZM50.0918 206.961C23.1409 223.516 14.6884 258.91 31.2437 285.851C39.259 298.909 51.8795 308.051 66.7831 311.617C81.6868 315.173 97.0762 312.725 110.134 304.7C137.085 288.154 145.537 252.76 128.992 225.809C117.032 206.349 95.2594 196.527 73.9338 198.81C65.7339 199.684 57.5922 202.356 50.1016 206.951L50.0918 206.961Z" fill="#1433B5"/>
<path d="M152.785 246.882H152.814C153.62 246.776 154.194 246.037 154.087 245.231C152.736 234.621 149.19 224.595 143.545 215.414C125.309 185.723 89.4396 172.461 56.3484 183.187C55.5712 183.44 55.1534 184.266 55.406 185.043C55.6586 185.82 56.4747 186.257 57.2617 185.985C89.0606 175.697 123.522 188.424 141.039 216.959C146.46 225.78 149.87 235.418 151.162 245.61C151.26 246.406 151.979 246.97 152.775 246.892L152.785 246.882Z" fill="#1433B5"/>
<path d="M67.3467 328.959C67.9879 328.891 68.532 328.405 68.6389 327.745C68.7749 326.938 68.2308 326.181 67.4342 326.045C66.3946 325.87 65.3647 325.675 64.3446 325.452C63.5479 325.287 62.7609 325.792 62.5958 326.589C62.4306 327.385 62.9359 328.163 63.7325 328.337C64.7915 328.561 65.87 328.775 66.9484 328.959C67.0844 328.979 67.2204 328.988 67.3564 328.969L67.3467 328.959Z" fill="#1433B5"/>
<path d="M52.2585 324.723C52.7831 324.665 53.2592 324.325 53.4729 323.8C53.7741 323.043 53.4049 322.188 52.6471 321.886C38.1223 316.096 26.0945 305.963 17.8849 292.594C17.4574 291.904 16.5441 291.69 15.8543 292.108C15.1645 292.536 14.9411 293.439 15.3686 294.139C23.9182 308.051 36.4318 318.593 51.5492 324.626C51.7824 324.723 52.0156 324.753 52.2488 324.723H52.2585Z" fill="#1433B5"/>
<path d="M45.7974 190.717C45.9723 190.697 46.1472 190.649 46.3221 190.561C47.6045 189.901 48.8967 189.279 50.1986 188.696C50.9369 188.366 51.277 187.501 50.9467 186.753C50.6163 186.015 49.7419 185.684 49.0036 186.005C47.6531 186.607 46.3027 187.258 44.9716 187.948C44.2527 188.327 43.9612 189.211 44.3401 189.93C44.6219 190.484 45.2145 190.785 45.8072 190.717H45.7974Z" fill="#1433B5"/>
<path d="M79.0052 209.507C79.763 209.429 80.3362 208.778 80.3168 208.001C80.2973 207.185 79.6173 206.543 78.8011 206.573C77.849 206.602 76.8969 206.65 75.9351 206.728C75.0316 206.835 74.5264 207.505 74.5944 208.321C74.6624 209.128 75.3716 209.73 76.1877 209.662C77.0815 209.584 77.9851 209.536 78.8789 209.516C78.9178 209.516 78.9566 209.516 78.9955 209.516L79.0052 209.507Z" fill="#F5F6FC"/>
<path d="M85.3787 304.836C92.6168 304.058 99.6119 301.688 105.898 297.821C129.05 283.597 136.308 253.198 122.094 230.045C121.666 229.356 120.753 229.142 120.073 229.56C119.383 229.987 119.16 230.891 119.587 231.59C132.956 253.353 126.126 281.936 104.363 295.305C96.6293 300.056 87.7687 302.426 78.7429 302.145C77.9366 302.125 77.2468 302.757 77.2273 303.573C77.1982 304.389 77.8394 305.059 78.6555 305.088C80.9193 305.156 83.1635 305.069 85.3884 304.836H85.3787Z" fill="#F5F6FC"/>
<path d="M69.6686 303.903C70.2806 303.835 70.8053 303.398 70.951 302.766C71.1356 301.97 70.6401 301.183 69.8434 300.998C68.9496 300.794 68.0655 300.571 67.1911 300.308C66.4236 300.075 65.5978 300.522 65.3646 301.309C65.1411 302.086 65.588 302.912 66.3653 303.135C67.2979 303.407 68.2404 303.65 69.1828 303.864C69.3479 303.903 69.5131 303.913 69.6686 303.893V303.903Z" fill="#F5F6FC"/>
<path d="M58.9135 300.065C59.3993 300.017 59.8462 299.725 60.0794 299.259C60.4389 298.53 60.1474 297.646 59.4187 297.287C51.6852 293.439 45.1855 287.484 40.6386 280.08C27.27 258.318 34.1 229.725 55.8628 216.356C59.6713 214.025 63.7518 212.256 68.0073 211.1C68.7942 210.886 69.2509 210.08 69.0468 209.293C68.8331 208.506 68.0461 208.04 67.2397 208.254C62.7123 209.478 58.3694 211.353 54.3278 213.84C31.1756 228.063 23.9181 258.463 38.132 281.616C42.9703 289.485 49.878 295.82 58.1071 299.91C58.3694 300.036 58.6512 300.085 58.9232 300.056L58.9135 300.065Z" fill="#F5F6FC"/>
<path d="M313.703 250.341C313.703 250.341 301.986 283.16 302.598 287.571C303.211 291.992 337.497 282.053 346.076 276.058L353.372 250.885L313.703 250.341Z" fill="white"/>
<path d="M305.494 290.087C304.289 290.087 303.337 289.961 302.696 289.679C301.491 289.155 301.2 288.251 301.141 287.765C300.519 283.219 310.342 255.374 312.314 249.836C312.528 249.243 313.13 248.845 313.723 248.855L353.391 249.399C353.848 249.399 354.285 249.622 354.557 249.991C354.829 250.361 354.917 250.837 354.791 251.274L347.494 276.447C347.407 276.767 347.203 277.049 346.921 277.244C339.712 282.276 314.928 290.068 305.494 290.068V290.087ZM304.037 287.066C307.962 288.591 335.923 280.955 344.803 275.135L351.419 252.323L314.733 251.818C310.381 264.079 304.046 283.287 304.037 287.056V287.066Z" fill="#1433B5"/>
<path d="M359.367 143.237C390.728 153.409 407.906 187.083 397.733 218.445C388.008 248.427 367.382 258.823 348.213 259.998C338.605 260.591 332.338 259.998 322.535 256.812C291.173 246.64 297.362 212.907 299.14 179.991C299.626 170.926 293.651 161.454 298.664 145.996C302.677 133.628 315.2 121.348 333.747 127.362C344.57 130.869 347.426 139.36 359.376 143.237H359.367Z" fill="#1433B5"/>
<path d="M340.251 261.266C369.227 258.599 390.554 232.946 387.887 203.971C385.219 174.995 359.567 153.668 330.591 156.335C301.615 159.003 280.288 184.655 282.956 213.631C285.623 242.607 311.275 263.934 340.251 261.266Z" fill="white"/>
<path d="M335.418 263.088C329.792 263.088 324.148 262.204 318.649 260.416C290.24 251.206 274.628 220.602 283.838 192.194C288.297 178.427 297.857 167.234 310.74 160.657C323.623 154.08 338.303 152.914 352.06 157.383C365.818 161.842 377.02 171.402 383.597 184.285C390.174 197.168 391.331 211.848 386.871 225.605C382.412 239.372 372.852 250.565 359.969 257.142C352.235 261.087 343.851 263.088 335.408 263.088H335.418ZM286.646 193.097C277.941 219.961 292.698 248.903 319.562 257.618C332.571 261.835 346.445 260.737 358.638 254.519C370.821 248.301 379.857 237.711 384.083 224.692C392.788 197.829 378.03 168.886 351.167 160.171C338.157 155.955 324.274 157.052 312.091 163.27C299.907 169.488 290.872 180.078 286.646 193.087V193.097Z" fill="#1433B5"/>
<path d="M370.131 164.786C353.421 174.492 353.887 210.682 367.382 224.245C354.217 229.734 345.094 250.526 348.203 259.998C368.217 256.52 382.577 240.567 385.764 234.767C388.95 228.967 393.643 204.464 393.643 204.464L388.057 179.554L370.122 164.796L370.131 164.786Z" fill="#1433B5"/>
<path d="M369.432 208.409C377.117 210.896 381.324 219.145 378.827 226.83C376.34 234.515 368.091 238.721 360.406 236.224C352.721 233.737 348.514 225.489 351.011 217.804C353.498 210.119 361.747 205.912 369.432 208.409Z" fill="white"/>
<path d="M322.389 241.772C316.22 241.772 308.68 240.266 301.666 234.787C301.025 234.281 300.908 233.358 301.413 232.717C301.918 232.066 302.841 231.959 303.483 232.464C317.434 243.365 334.164 236.856 334.33 236.798C335.078 236.497 335.942 236.856 336.243 237.614C336.545 238.372 336.175 239.227 335.427 239.528C335.029 239.693 329.656 241.772 322.399 241.772H322.389Z" fill="#1433B5"/>
<path d="M332.639 205.931C331.979 205.931 331.366 205.475 331.211 204.804C331.133 204.503 329.336 197.43 321.097 197.984C320.271 198.042 319.581 197.421 319.533 196.614C319.475 195.798 320.096 195.099 320.903 195.05C329.501 194.486 333.28 200.743 334.077 204.134C334.262 204.921 333.776 205.718 332.979 205.902C332.863 205.931 332.756 205.941 332.639 205.941V205.931Z" fill="#1433B5"/>
<path d="M299.324 187.938C298.664 187.938 298.061 187.491 297.896 186.821C297.556 185.694 295.331 183.994 289.288 185.548C288.492 185.752 287.695 185.276 287.491 184.489C287.287 183.702 287.763 182.896 288.55 182.692C292.815 181.594 296.118 181.749 298.372 183.129C300.296 184.305 300.714 185.956 300.753 186.141C300.927 186.937 300.432 187.724 299.645 187.899C299.538 187.928 299.421 187.938 299.315 187.938H299.324Z" fill="#1433B5"/>
<path d="M322.681 227.422C321.204 227.422 319.737 227.199 318.299 226.732C307.962 223.38 303.434 208.671 308.214 193.942C310.497 186.899 314.539 180.875 319.601 176.979C324.828 172.957 330.511 171.645 335.622 173.307C345.959 176.658 350.486 191.368 345.706 206.096C341.587 218.785 331.891 227.412 322.671 227.412L322.681 227.422ZM331.191 175.57C327.995 175.57 324.624 176.843 321.408 179.32C316.812 182.857 313.13 188.375 311.022 194.856C306.747 208.04 310.42 221.078 319.212 223.934C327.995 226.771 338.633 218.387 342.908 205.193C347.183 192.009 343.511 178.971 334.718 176.114C333.581 175.745 332.396 175.561 331.182 175.561L331.191 175.57Z" fill="#1433B5"/>
<path d="M287.063 210.031C286.092 210.031 285.14 209.886 284.207 209.584C276.425 207.058 273.685 194.7 277.989 181.458C279.99 175.289 283.245 169.896 287.141 166.302C291.27 162.493 295.671 161.075 299.538 162.338C307.33 164.864 310.06 177.222 305.766 190.464C301.986 202.133 294.195 210.031 287.073 210.031H287.063ZM296.701 164.835C294.34 164.835 291.727 166.078 289.143 168.459C285.606 171.723 282.643 176.658 280.787 182.361C277.124 193.651 279.106 204.834 285.12 206.786C291.124 208.739 299.305 200.85 302.958 189.561C306.621 178.271 304.639 167.089 298.625 165.136C298.003 164.932 297.362 164.835 296.701 164.835Z" fill="#1433B5"/>
<path d="M382.664 180.865C382.179 180.865 381.702 180.622 381.421 180.185C380.906 179.369 380.342 178.602 379.769 177.892C379.254 177.261 379.342 176.338 379.963 175.823C380.585 175.298 381.518 175.395 382.033 176.017C382.693 176.814 383.325 177.688 383.908 178.602C384.345 179.291 384.141 180.195 383.451 180.632C383.208 180.788 382.936 180.865 382.664 180.865Z" fill="white"/>
<path d="M387.61 212.849C387.532 212.849 387.454 212.849 387.386 212.829C386.58 212.703 386.036 211.955 386.152 211.149C386.172 211.022 388.008 198.82 384.802 187.861C384.569 187.083 385.025 186.257 385.803 186.034C386.59 185.811 387.406 186.257 387.629 187.035C391.02 198.645 389.145 211.081 389.067 211.605C388.95 212.334 388.329 212.849 387.61 212.849Z" fill="white"/>
<path d="M307.622 154.089C307.622 154.089 307.563 154.089 307.534 154.089C306.718 154.041 306.106 153.351 306.145 152.535C306.184 151.845 307.262 135.562 319.28 133.551C325.984 132.433 332.231 135.843 337.477 139.331C338.157 139.778 338.342 140.692 337.885 141.372C337.439 142.052 336.525 142.236 335.845 141.78C331.075 138.612 325.42 135.513 319.766 136.446C310.041 138.068 309.098 152.544 309.089 152.69C309.04 153.477 308.399 154.08 307.622 154.08V154.089Z" fill="white"/>
<path d="M348.359 149.601C348.165 149.601 347.96 149.562 347.776 149.474C346.863 149.076 345.852 148.542 344.677 147.813C343.987 147.386 343.773 146.482 344.191 145.782C344.618 145.093 345.522 144.879 346.221 145.297C347.271 145.948 348.165 146.424 348.952 146.764C349.7 147.084 350.04 147.949 349.719 148.697C349.476 149.251 348.932 149.591 348.369 149.591L348.359 149.601Z" fill="white"/>
<path d="M274.278 487.148C237.417 487.148 217.17 474.382 216.121 473.711C215.441 473.264 215.246 472.361 215.683 471.681C216.121 471.001 217.044 470.806 217.724 471.243C218.035 471.438 249.552 491.228 304.717 481.435C305.513 481.289 306.281 481.833 306.427 482.63C306.572 483.427 306.038 484.194 305.232 484.34C293.894 486.351 283.556 487.167 274.278 487.167V487.148Z" fill="#1433B5"/>
<path d="M379.546 375.089C378.866 375.089 378.263 374.622 378.108 373.933C377.933 373.136 378.438 372.349 379.235 372.184L390.971 369.609C386.22 367.598 377.029 364.518 364.156 363.799C363.34 363.751 362.718 363.061 362.767 362.245C362.816 361.429 363.505 360.778 364.321 360.855C384.51 361.973 395.732 368.579 396.208 368.861C396.723 369.172 396.995 369.765 396.907 370.357C396.81 370.95 396.363 371.426 395.771 371.562L379.876 375.06C379.769 375.089 379.662 375.099 379.555 375.099L379.546 375.089Z" fill="#1433B5"/>
<path d="M454.744 250.331L473.466 248.33C474 248.272 474.467 247.922 474.671 247.426C474.875 246.921 474.797 246.358 474.447 245.93L466.286 235.923L485.27 238.993C486.086 239.129 486.834 238.576 486.961 237.779C487.087 236.973 486.543 236.215 485.746 236.088L462.934 232.396C462.332 232.29 461.73 232.581 461.419 233.115C461.117 233.65 461.166 234.31 461.555 234.786L470.454 245.687L454.433 247.397C453.627 247.485 453.044 248.204 453.122 249.02C453.199 249.836 453.928 250.409 454.744 250.331Z" fill="#1433B5"/>
<path d="M144.76 362.42C144.76 362.42 144.838 362.42 144.867 362.41C145.664 362.264 146.198 361.497 146.052 360.69C141.457 335.546 153.931 302.144 154.067 301.814C154.359 301.056 153.97 300.201 153.213 299.92C152.445 299.628 151.6 300.026 151.318 300.775C150.793 302.174 138.425 335.284 143.167 361.225C143.303 361.992 144.012 362.507 144.77 362.42H144.76Z" fill="#1433B5"/>
<path d="M512.464 175.017C513.154 174.939 513.708 174.395 513.776 173.686C513.854 172.879 513.251 172.16 512.435 172.082C511.172 171.966 509.88 171.898 508.578 171.849C507.781 171.83 507.082 172.461 507.062 173.277C507.033 174.094 507.674 174.774 508.491 174.793C509.734 174.832 510.968 174.91 512.182 175.017C512.28 175.017 512.377 175.017 512.474 175.017H512.464Z" fill="#1433B5"/>
<path d="M560.468 198.46C560.77 198.431 561.061 198.305 561.294 198.091C561.897 197.547 561.945 196.614 561.401 196.012C560.886 195.448 548.635 182.051 528.427 175.405C527.659 175.143 526.823 175.57 526.571 176.348C526.318 177.115 526.736 177.951 527.513 178.203C546.983 184.606 559.098 197.858 559.215 197.984C559.545 198.344 560.012 198.509 560.468 198.46Z" fill="#1433B5"/>
<path d="M424.976 580.388C424.189 580.388 423.538 579.766 423.509 578.979C423.149 570.313 422.625 561.909 421.944 553.981C421.876 553.175 422.479 552.456 423.285 552.388C424.092 552.3 424.811 552.922 424.879 553.728C425.559 561.695 426.093 570.148 426.452 578.853C426.482 579.669 425.86 580.349 425.044 580.388H424.985H424.976Z" fill="white"/>
<path d="M291.883 580.388C291.815 580.388 291.746 580.388 291.678 580.368C252.01 574.792 232.724 553.962 223.534 537.465C223.135 536.755 223.388 535.852 224.097 535.463C224.816 535.065 225.71 535.317 226.099 536.027C234.969 551.941 253.613 572.042 292.087 577.454C292.893 577.57 293.456 578.309 293.34 579.115C293.233 579.854 292.601 580.388 291.883 580.388Z" fill="white"/>
<path d="M515.903 589.86H126.417C125.601 589.86 124.95 589.2 124.95 588.393C124.95 587.577 125.61 586.926 126.417 586.926H515.903C516.719 586.926 517.37 587.587 517.37 588.393C517.37 589.209 516.71 589.86 515.903 589.86Z" fill="#1433B5"/>
<path d="M235.989 272.308C239.885 271.89 243.577 271.443 247.006 270.987C247.813 270.88 248.376 270.141 248.269 269.335C248.162 268.529 247.511 267.955 246.618 268.072C227.216 270.637 199.206 273.066 176.044 270.132C175.247 270.034 174.499 270.598 174.392 271.404C174.295 272.211 174.859 272.949 175.665 273.056C195.028 275.504 217.656 274.27 235.979 272.308H235.989Z" fill="#1433B5"/>
<path d="M199.381 431.274C199.254 431.274 199.128 431.254 199.011 431.225C198.224 431.021 197.748 430.215 197.962 429.428C204.034 406.169 208.494 390.74 208.533 390.585C208.756 389.808 209.572 389.351 210.359 389.584C211.136 389.808 211.593 390.624 211.36 391.411C211.321 391.566 206.871 406.956 200.809 430.176C200.634 430.836 200.041 431.283 199.381 431.283V431.274Z" fill="#1433B5"/>
<path d="M414.765 222.409C414.881 222.399 414.998 222.37 415.114 222.331C443.202 212.091 471.853 179.583 473.058 178.203C473.592 177.591 473.534 176.658 472.922 176.124C472.31 175.59 471.377 175.648 470.843 176.26C470.551 176.59 441.482 209.584 414.114 219.553C413.346 219.834 412.957 220.68 413.229 221.437C413.463 222.088 414.114 222.467 414.765 222.399V222.409Z" fill="#1433B5"/>
<path d="M538.764 88.9271C538.715 87.6543 538.628 86.3816 538.647 85.1089C538.657 84.3413 538.336 84.0402 537.627 83.8944C536.092 83.5932 534.615 83.1075 533.187 82.4468C525.512 78.8812 525.803 69.088 531.672 64.7257C533.139 63.6375 534.742 62.7826 536.529 62.3843C537.54 62.1608 537.889 61.7625 537.841 60.6743C537.724 58.0511 539.784 56.3606 542.116 57.0115C543.563 57.4196 544.506 58.5855 544.496 60.3537C544.496 61.5098 544.943 61.8401 546.002 62.0247C551.501 62.9866 554.969 66.2607 556.067 71.3517C556.514 73.4502 555.475 75.2573 553.59 75.6362C551.608 76.0443 549.937 74.9561 549.529 72.8479C549.111 70.7007 547.829 69.4668 545.817 68.8353C545.137 68.6216 544.817 68.7188 544.846 69.5252C544.953 72.1969 545.04 74.8687 545.099 77.5405C545.108 78.1817 545.419 78.3566 545.963 78.5023C547.158 78.8132 548.363 79.1047 549.509 79.5516C553.366 81.0478 555.951 83.671 556.359 87.9458C556.757 92.1332 555.164 95.4948 551.763 97.982C550.287 99.0604 548.625 99.7794 546.847 100.187C546.196 100.343 545.808 100.547 545.924 101.314C546.323 103.976 544.593 105.502 542.738 105.57C540.999 105.628 539.104 104.433 539.201 101.577C539.23 100.838 538.91 100.644 538.21 100.527C534.499 99.9056 531.332 98.3415 529.243 95.0479C528.368 93.678 527.834 92.1624 527.649 90.5496C527.436 88.6259 528.611 87.0423 530.37 86.7702C532.284 86.4788 533.896 87.5475 534.246 89.5198C534.625 91.6863 535.898 92.9202 537.899 93.5808C538.609 93.814 538.978 93.7557 538.91 92.8619C538.813 91.5503 538.813 90.229 538.764 88.9174V88.9271ZM538.22 73.1199C538.181 71.9735 538.132 70.8173 538.103 69.6709C538.094 69.1268 537.938 68.9616 537.365 69.1462C535.393 69.7875 533.984 71.6431 534.071 73.5862C534.139 75.2379 535.441 76.4426 537.617 76.977C538.191 77.113 538.366 77.0158 538.336 76.4426C538.278 75.335 538.259 74.2275 538.22 73.1199ZM545.516 89.3935C545.555 90.501 545.604 91.5989 545.623 92.7064C545.633 93.4059 545.876 93.5323 546.536 93.2602C548.635 92.415 549.801 90.7925 549.655 88.7716C549.538 87.1297 548.431 86.1096 546.177 85.4878C545.565 85.3129 545.351 85.4392 545.39 86.0804C545.448 87.188 545.468 88.2859 545.516 89.3935Z" fill="#01CE93"/>
<path d="M78.4028 265.235C78.257 263.972 78.0627 262.709 77.9753 261.436C77.9267 260.669 77.5769 260.397 76.858 260.309C75.3035 260.134 73.7879 259.775 72.3111 259.231C64.3735 256.297 63.8683 246.523 69.3576 241.685C70.7275 240.48 72.2625 239.499 74.0016 238.955C74.9926 238.644 75.3035 238.226 75.1675 237.148C74.8371 234.544 76.7511 232.688 79.1314 233.154C80.6082 233.436 81.638 234.534 81.774 236.293C81.8615 237.449 82.3376 237.74 83.4063 237.837C88.9636 238.352 92.6943 241.325 94.2002 246.309C94.822 248.359 93.9282 250.244 92.0823 250.788C90.1392 251.352 88.3806 250.409 87.8074 248.349C87.2147 246.241 85.8351 245.124 83.7754 244.658C83.0856 244.502 82.7747 244.629 82.8719 245.425C83.2022 248.078 83.5034 250.73 83.7851 253.392C83.8532 254.023 84.1738 254.179 84.7276 254.276C85.942 254.49 87.1662 254.684 88.3417 255.034C92.3057 256.209 95.0941 258.619 95.8519 262.835C96.5903 266.974 95.2787 270.462 92.092 273.212C90.7027 274.407 89.1093 275.262 87.3702 275.815C86.7387 276.019 86.3598 276.262 86.5444 277.01C87.1565 279.633 85.5631 281.295 83.7171 281.509C81.9878 281.713 80.0058 280.673 79.8698 277.817C79.831 277.078 79.5006 276.913 78.8011 276.855C75.0509 276.534 71.767 275.242 69.4159 272.133C68.4346 270.831 67.7739 269.374 67.463 267.781C67.0939 265.876 68.1334 264.205 69.8725 263.787C71.7573 263.341 73.4575 264.273 73.953 266.207C74.5068 268.334 75.8767 269.461 77.9267 269.957C78.6554 270.132 79.0148 270.035 78.8788 269.16C78.6748 267.858 78.5582 266.547 78.4125 265.245L78.4028 265.235ZM76.5762 249.525C76.4402 248.379 76.2945 247.242 76.1876 246.095C76.1293 245.551 75.9641 245.406 75.4104 245.639C73.4964 246.436 72.2528 248.408 72.486 250.331C72.69 251.973 74.0891 253.062 76.3042 253.421C76.8774 253.518 77.0523 253.402 76.9745 252.828C76.8288 251.731 76.7123 250.623 76.586 249.525H76.5762ZM85.1745 265.148C85.3008 266.246 85.4465 267.343 85.5534 268.441C85.6214 269.141 85.874 269.238 86.5055 268.917C88.5361 267.897 89.5562 266.187 89.255 264.186C89.0121 262.563 87.8171 261.631 85.5243 261.193C84.8928 261.077 84.6984 261.213 84.7859 261.844C84.9316 262.942 85.0482 264.04 85.1745 265.138V265.148Z" fill="#01CE93"/>
<defs>
<linearGradient id="paint0_linear_1_786" x1="534.239" y1="-31.4029" x2="543.444" y2="112.033" gradientUnits="userSpaceOnUse">
<stop stop-color="white" stop-opacity="0.35"/>
<stop offset="0.04" stop-color="white" stop-opacity="0.4"/>
<stop offset="0.21" stop-color="white" stop-opacity="0.58"/>
<stop offset="0.37" stop-color="white" stop-opacity="0.73"/>
<stop offset="0.54" stop-color="white" stop-opacity="0.85"/>
<stop offset="0.7" stop-color="white" stop-opacity="0.93"/>
<stop offset="0.85" stop-color="white" stop-opacity="0.98"/>
<stop offset="1" stop-color="white"/>
</linearGradient>
<linearGradient id="paint1_linear_1_786" x1="94.3836" y1="166.689" x2="76.818" y2="276.363" gradientUnits="userSpaceOnUse">
<stop stop-color="white" stop-opacity="0.35"/>
<stop offset="0.04" stop-color="white" stop-opacity="0.4"/>
<stop offset="0.21" stop-color="white" stop-opacity="0.58"/>
<stop offset="0.37" stop-color="white" stop-opacity="0.73"/>
<stop offset="0.54" stop-color="white" stop-opacity="0.85"/>
<stop offset="0.7" stop-color="white" stop-opacity="0.93"/>
<stop offset="0.85" stop-color="white" stop-opacity="0.98"/>
<stop offset="1" stop-color="white"/>
</linearGradient>
</defs>
</svg>
