<svg width="26" height="26" viewBox="0 0 26 26" fill="none" xmlns="http://www.w3.org/2000/svg">
<path d="M7.66413 0H18.5107C22.6428 0 26 3.35728 26 7.48932V18.3359C26 20.3222 25.211 22.2272 23.8065 23.6317C22.402 25.0362 20.497 25.8252 18.5107 25.8252H7.66413C3.53209 25.8252 0.174805 22.468 0.174805 18.3359V7.48932C0.174805 5.50303 0.963856 3.59809 2.36838 2.19357C3.7729 0.789051 5.67783 0 7.66413 0ZM7.40587 2.58252C6.173 2.58252 4.99063 3.07228 4.11886 3.94405C3.24709 4.81582 2.75733 5.9982 2.75733 7.23107V18.5942C2.75733 21.1638 4.83626 23.2427 7.40587 23.2427H18.769C20.0019 23.2427 21.1842 22.753 22.056 21.8812C22.9278 21.0094 23.4175 19.827 23.4175 18.5942V7.23107C23.4175 4.66146 21.3386 2.58252 18.769 2.58252H7.40587ZM19.8666 4.51942C20.2946 4.51942 20.7052 4.68947 21.0079 4.99217C21.3106 5.29487 21.4806 5.70542 21.4806 6.1335C21.4806 6.56158 21.3106 6.97212 21.0079 7.27482C20.7052 7.57752 20.2946 7.74757 19.8666 7.74757C19.4385 7.74757 19.0279 7.57752 18.7252 7.27482C18.4225 6.97212 18.2525 6.56158 18.2525 6.1335C18.2525 5.70542 18.4225 5.29487 18.7252 4.99217C19.0279 4.68947 19.4385 4.51942 19.8666 4.51942ZM13.0874 6.45631C14.7997 6.45631 16.4419 7.13653 17.6527 8.34732C18.8635 9.55811 19.5437 11.2003 19.5437 12.9126C19.5437 14.6249 18.8635 16.2671 17.6527 17.4779C16.4419 18.6887 14.7997 19.3689 13.0874 19.3689C11.3751 19.3689 9.73292 18.6887 8.52213 17.4779C7.31133 16.2671 6.63112 14.6249 6.63112 12.9126C6.63112 11.2003 7.31133 9.55811 8.52213 8.34732C9.73292 7.13653 11.3751 6.45631 13.0874 6.45631ZM13.0874 9.03884C12.06 9.03884 11.0747 9.44696 10.3482 10.1734C9.62177 10.8999 9.21364 11.8852 9.21364 12.9126C9.21364 13.94 9.62177 14.9253 10.3482 15.6518C11.0747 16.3783 12.06 16.7864 13.0874 16.7864C14.1148 16.7864 15.1001 16.3783 15.8266 15.6518C16.5531 14.9253 16.9612 13.94 16.9612 12.9126C16.9612 11.8852 16.5531 10.8999 15.8266 10.1734C15.1001 9.44696 14.1148 9.03884 13.0874 9.03884Z" fill="white"/>
</svg>
