<svg width="198" height="29" viewBox="0 0 198 29" fill="none" xmlns="http://www.w3.org/2000/svg">
<g clip-path="url(#clip0_84_29)">
<path d="M19.52 18.2301H24.44V22.3501H19.03L18.27 28.4001H14L14.76 22.3501H9.2L8.44 28.4001H4.2L4.96 22.3501H0V18.2301H5.45L6.24 12.1001H1.29V7.98005H6.73L7.49 1.93005H11.73L10.97 7.98005H16.53L17.29 1.93005H21.53L20.77 7.98005H25.69L25.73 12.1001H20.28L19.52 18.2301ZM15.25 18.2301L16.04 12.1001H10.48L9.69 18.2301H15.25Z" fill="#01CE93"/>
<path d="M27.54 25.8L29.62 21.18C31.85 22.81 35.18 23.94 38.36 23.94C41.99 23.94 43.47 22.73 43.47 21.1C43.47 16.14 28.07 19.55 28.07 9.71997C28.07 5.21997 31.7 1.46997 39.23 1.46997C42.56 1.46997 45.96 2.25997 48.42 3.81997L46.53 8.46997C44.07 7.06997 41.54 6.38997 39.19 6.38997C35.56 6.38997 34.16 7.74997 34.16 9.41997C34.16 14.3 49.56 10.93 49.56 20.65C49.56 25.08 45.89 28.86 38.33 28.86C34.13 28.86 29.89 27.61 27.55 25.8H27.54Z" fill="#01CE93"/>
<path d="M73.15 19.9H57.75C58.32 22.43 60.47 23.98 63.58 23.98C65.74 23.98 67.29 23.34 68.69 22.01L71.83 25.41C69.94 27.57 67.1 28.7 63.43 28.7C56.39 28.7 51.82 24.27 51.82 18.22C51.82 12.17 56.47 7.74 62.68 7.74C68.89 7.74 73.27 11.75 73.27 18.29C73.27 18.75 73.19 19.39 73.16 19.88L73.15 19.9ZM57.68 16.46H67.7C67.28 13.89 65.35 12.22 62.71 12.22C60.07 12.22 58.09 13.85 57.68 16.46ZM63.73 5.45H59.11L64.22 0H70.58L63.73 5.45Z" fill="#01CE93"/>
<path d="M95.5 14.75H101.1V25.49C98.19 27.68 94.18 28.86 90.39 28.86C82.07 28.86 75.94 23.15 75.94 15.17C75.94 7.18998 82.07 1.47998 90.5 1.47998C95.15 1.47998 99.01 3.06998 101.58 6.05998L97.65 9.68998C95.72 7.64998 93.49 6.69998 90.8 6.69998C85.66 6.69998 82.14 10.14 82.14 15.17C82.14 20.2 85.66 23.64 90.73 23.64C92.39 23.64 93.94 23.34 95.5 22.51V14.76V14.75Z" fill="#01CE93"/>
<path d="M106.36 0.339966H112.26V28.41H106.36V0.339966Z" fill="#01CE93"/>
<path d="M116.23 18.23C116.23 12.1 120.96 7.75 127.43 7.75C133.9 7.75 138.59 12.1 138.59 18.23C138.59 24.36 133.9 28.71 127.43 28.71C120.96 28.71 116.23 24.36 116.23 18.23ZM132.61 18.23C132.61 14.71 130.38 12.6 127.43 12.6C124.48 12.6 122.21 14.72 122.21 18.23C122.21 21.74 124.48 23.87 127.43 23.87C130.38 23.87 132.61 21.75 132.61 18.23Z" fill="#01CE93"/>
<path d="M164.68 18.23C164.68 24.62 160.25 28.71 154.54 28.71C151.82 28.71 149.62 27.84 148.15 26.06V28.41H142.51V0.339966H148.41V10.21C149.92 8.53997 152 7.74997 154.54 7.74997C160.25 7.74997 164.68 11.83 164.68 18.23ZM158.7 18.23C158.7 14.71 156.47 12.6 153.52 12.6C150.57 12.6 148.34 14.72 148.34 18.23C148.34 21.74 150.57 23.87 153.52 23.87C156.47 23.87 158.7 21.75 158.7 18.23Z" fill="#01CE93"/>
<path d="M186.62 16.8V28.41H181.1V25.88C180 27.73 177.89 28.72 174.9 28.72C170.13 28.72 167.3 26.07 167.3 22.55C167.3 19.03 169.83 16.46 176.04 16.46H180.73C180.73 13.93 179.22 12.45 176.04 12.45C173.88 12.45 171.65 13.17 170.18 14.34L168.06 10.22C170.29 8.63001 173.58 7.76001 176.84 7.76001C183.04 7.76001 186.64 10.64 186.64 16.8H186.62ZM180.72 21.98V19.9H176.67C173.91 19.9 173.04 20.92 173.04 22.28C173.04 23.75 174.29 24.74 176.37 24.74C178.34 24.74 180.04 23.83 180.72 21.98Z" fill="#01CE93"/>
<path d="M191.95 0.339966H197.85V28.41H191.95V0.339966Z" fill="#01CE93"/>
</g>
<defs>
<clipPath id="clip0_84_29">
<rect width="197.85" height="28.86" fill="white"/>
</clipPath>
</defs>
</svg>
