<svg width="177" height="29" viewBox="0 0 177 29" fill="none" xmlns="http://www.w3.org/2000/svg">
<path d="M0.718018 25.5324L2.73885 21.0536C4.90542 22.6372 8.14069 23.7351 11.2302 23.7351C14.757 23.7351 16.1949 22.5595 16.1949 20.9759C16.1949 16.1569 1.23294 19.4699 1.23294 9.90985C1.23294 5.53786 4.75969 1.89453 12.0755 1.89453C15.3108 1.89453 18.6141 2.66207 21.0041 4.17769L19.1678 8.69541C16.7778 7.33524 14.3198 6.67458 12.0366 6.67458C8.50988 6.67458 7.1497 7.9959 7.1497 9.61839C7.1497 14.3596 22.1116 11.0854 22.1116 20.5289C22.1116 24.8329 18.546 28.5054 11.2011 28.5054C7.12056 28.5054 3.00117 27.291 0.727735 25.5324H0.718018Z" fill="#01CE93"/>
<path d="M45.0404 19.8002H30.0785C30.6322 22.2583 32.7211 23.7642 35.7426 23.7642C37.8412 23.7642 39.3471 23.1424 40.7073 21.8502L43.7579 25.1535C41.9217 27.2521 39.1625 28.3499 35.5969 28.3499C28.7571 28.3499 24.3171 24.0459 24.3171 18.168C24.3171 12.2901 28.8349 7.98614 34.8682 7.98614C40.9016 7.98614 45.157 11.8821 45.157 18.236C45.157 18.6732 45.0793 19.3047 45.0501 19.7808L45.0404 19.8002ZM30.0104 16.4581H39.7454C39.3374 13.9612 37.4623 12.3387 34.8974 12.3387C32.3325 12.3387 30.4088 13.9223 30.0104 16.4581ZM35.8884 5.76128H31.3998L36.3644 0.466309H42.5435L35.8884 5.76128Z" fill="#01CE93"/>
<path d="M77.1502 14.7968H82.5909V25.2313C79.7637 27.359 75.8678 28.5055 72.1856 28.5055C64.1022 28.5055 58.1466 22.9579 58.1466 15.2049C58.1466 7.45187 64.1022 1.9043 72.2924 1.9043C76.8102 1.9043 80.5604 3.44907 83.0573 6.35402L79.239 9.88076C77.3639 7.89879 75.1974 6.97581 72.5839 6.97581C67.5901 6.97581 64.1702 10.318 64.1702 15.2049C64.1702 20.0918 67.5901 23.4339 72.5159 23.4339C74.1287 23.4339 75.6346 23.1425 77.1502 22.3361V14.8065V14.7968Z" fill="#01CE93"/>
<path d="M87.7013 0.796631H93.4335V28.0682H87.7013V0.796631Z" fill="#01CE93"/>
<path d="M97.2905 18.1777C97.2905 12.2221 101.886 7.99585 108.172 7.99585C114.458 7.99585 119.014 12.2221 119.014 18.1777C119.014 24.1334 114.458 28.3596 108.172 28.3596C101.886 28.3596 97.2905 24.1334 97.2905 18.1777ZM113.205 18.1777C113.205 14.7579 111.038 12.6982 108.172 12.6982C105.306 12.6982 103.1 14.7579 103.1 18.1777C103.1 21.5976 105.306 23.6573 108.172 23.6573C111.038 23.6573 113.205 21.5976 113.205 18.1777Z" fill="#01CE93"/>
<path d="M144.362 18.1777C144.362 24.386 140.058 28.3596 134.511 28.3596C131.868 28.3596 129.731 27.5144 128.302 25.785V28.0682H122.823V0.796631H128.555V10.3859C130.022 8.76338 132.043 7.99585 134.511 7.99585C140.058 7.99585 144.362 11.9598 144.362 18.1777ZM138.552 18.1777C138.552 14.7579 136.386 12.6982 133.52 12.6982C130.654 12.6982 128.487 14.7579 128.487 18.1777C128.487 21.5976 130.654 23.6573 133.52 23.6573C136.386 23.6573 138.552 21.5976 138.552 18.1777Z" fill="#01CE93"/>
<path d="M165.678 16.7885V28.0682H160.315V25.6102C159.246 27.4076 157.196 28.3694 154.292 28.3694C149.657 28.3694 146.908 25.7948 146.908 22.3749C146.908 18.955 149.366 16.4581 155.399 16.4581H159.956C159.956 14.0001 158.489 12.5622 155.399 12.5622C153.301 12.5622 151.134 13.2617 149.706 14.3984L147.646 10.3956C149.813 8.85087 153.009 8.00562 156.176 8.00562C162.2 8.00562 165.698 10.8037 165.698 16.7885H165.678ZM159.946 21.8211V19.8003H156.011C153.33 19.8003 152.484 20.7913 152.484 22.1126C152.484 23.5505 153.699 24.5026 155.72 24.5026C157.634 24.5026 159.285 23.6185 159.946 21.8211Z" fill="#01CE93"/>
<path d="M170.857 0.796631H176.589V28.0682H170.857V0.796631Z" fill="#01CE93"/>
</svg>
