<svg width="28" height="22" viewBox="0 0 28 22" fill="none" xmlns="http://www.w3.org/2000/svg">
<path d="M27.0132 2.58252C26.0189 3.03447 24.9472 3.33146 23.8367 3.4735C24.973 2.78913 25.8511 1.70447 26.2643 0.400291C25.1925 1.04592 24.0046 1.49786 22.752 1.75612C21.7319 0.645631 20.2986 0 18.6716 0C15.6372 0 13.158 2.47922 13.158 5.53951C13.158 5.97854 13.2096 6.40466 13.3 6.80495C8.70311 6.57253 4.60981 4.36447 1.88524 1.0201C1.40748 1.83359 1.13631 2.78913 1.13631 3.79631C1.13631 5.72029 2.10476 7.42476 3.60262 8.3932C2.68583 8.3932 1.83359 8.13495 1.08466 7.74757C1.08466 7.74757 1.08466 7.74757 1.08466 7.78631C1.08466 10.4721 2.99573 12.7189 5.5266 13.2225C5.06175 13.3517 4.57107 13.4162 4.06748 13.4162C3.71884 13.4162 3.37019 13.3775 3.03447 13.3129C3.73175 15.4951 5.75903 17.1221 8.19951 17.1609C6.31427 18.6587 3.92544 19.5368 1.31709 19.5368C0.878058 19.5368 0.439029 19.511 0 19.4593C2.4534 21.0347 5.37165 21.9515 8.4965 21.9515C18.6716 21.9515 24.2628 13.5066 24.2628 6.18515C24.2628 5.93981 24.2628 5.70738 24.2499 5.46204C25.3346 4.68728 26.2643 3.70592 27.0132 2.58252Z" fill="white"/>
</svg>
